<svg width="320" height="269" viewBox="0 0 320 269" fill="none" xmlns="http://www.w3.org/2000/svg">
<path d="M310.257 50.5685L165.956 194.869L158.856 201.971L143.697 217.129L108.542 252.283L0 143.74L26.4045 117.343L58.7216 149.659L89.7808 180.718L108.542 199.481L127.306 180.718L241.636 66.382L283.852 24.1655L310.257 50.5685Z" fill="#FFC05C"/>
<path d="M243.408 51.9387V180.718H180.109H66.245V51.9387H243.408Z" fill="#F3F3F3"/>
<path d="M66.2465 67.4911L243.407 67.4911V51.9372L66.2465 51.9372V67.4911Z" fill="#0052CC"/>
<path d="M96.8011 56.7749H75.7592C74.592 56.7749 73.6458 57.7211 73.6458 58.8884V60.5387C73.6458 61.706 74.592 62.6522 75.7592 62.6522H96.8011C97.9683 62.6522 98.9146 61.706 98.9146 60.5387V58.8884C98.9146 57.7211 97.9683 56.7749 96.8011 56.7749Z" fill="#F5F7FF"/>
<path d="M251.072 189.771H251.082C251.046 189.787 251.042 189.787 251.072 189.771Z" fill="#323657"/>
<path d="M268.2 167.526L319.175 139.018L301.652 137.862L268.2 167.526Z" fill="#D6D6D6"/>
<path d="M268.2 167.526L283.886 142.296L297.048 141.947L268.2 167.526Z" fill="#E8E8E8"/>
<path d="M307.455 145.573L308.475 151.997L268.2 167.526L307.455 145.573Z" fill="#C2C2C2"/>
<path d="M37.8264 135.862C37.7639 135.163 37.7046 134.458 37.6517 133.763L38.1743 133.731C38.2272 134.422 38.2849 135.126 38.3474 135.822L37.8264 135.862ZM309.962 133.648L309.663 133.247C310.421 132.737 311.144 132.183 311.827 131.588L312.186 131.944C311.485 132.556 310.743 133.125 309.962 133.648ZM37.4738 131.137C37.4209 130.261 37.3744 129.377 37.3376 128.508L37.8633 128.488C37.9002 129.355 37.9467 130.237 37.9979 131.11L37.4738 131.137ZM314.189 130.037L313.792 129.716C314.41 129.063 314.986 128.378 315.52 127.664L315.952 127.947C315.409 128.674 314.82 129.372 314.189 130.037ZM37.2446 125.871C37.2222 124.995 37.2077 124.108 37.1997 123.239H37.7271C37.7271 124.105 37.7479 124.989 37.7703 125.862L37.2446 125.871ZM317.416 125.644L316.944 125.426C317.365 124.655 317.717 123.854 317.998 123.031L318.499 123.179C318.211 124.029 317.848 124.855 317.416 125.65V125.644ZM37.7303 120.618H37.2045C37.2141 119.742 37.2318 118.855 37.2574 117.987L37.7848 118.001C37.7575 118.861 37.7399 119.743 37.7303 120.618ZM319.104 120.572L318.581 120.516C318.642 120.019 318.673 119.519 318.674 119.018C318.674 118.661 318.658 118.299 318.626 117.941L319.15 117.901C319.184 118.271 319.2 118.643 319.2 119.018C319.2 119.537 319.168 120.056 319.104 120.572ZM318.124 115.407C317.867 114.577 317.535 113.769 317.132 112.991L317.613 112.782C318.028 113.585 318.37 114.418 318.635 115.273L318.124 115.407ZM37.8889 115.373L37.3632 115.351C37.4065 114.473 37.4594 113.589 37.5235 112.721L38.0476 112.754C37.9851 113.617 37.9322 114.499 37.8889 115.373ZM315.747 110.744C315.227 110.024 314.664 109.331 314.061 108.668L314.465 108.357C315.081 109.034 315.656 109.742 316.186 110.479L315.747 110.744ZM38.256 110.138L37.7319 110.096C37.8104 109.223 37.8922 108.34 37.9979 107.476L38.5221 107.528C38.4243 108.388 38.3345 109.261 38.256 110.138ZM312.153 106.74L311.924 106.533C311.334 105.999 310.709 105.5 310.054 105.036L310.374 104.649C311.048 105.125 311.69 105.638 312.298 106.184L312.53 106.395L312.153 106.74ZM38.8443 104.922L38.3233 104.861C38.4403 103.991 38.5686 103.113 38.7048 102.253L39.2257 102.324C39.0895 103.181 38.9613 104.055 38.8443 104.922ZM307.73 103.605C306.92 103.172 306.085 102.78 305.229 102.432L305.442 101.987C306.316 102.343 307.168 102.742 307.994 103.184L307.73 103.605ZM302.6 101.492C301.751 101.223 300.868 100.977 299.9 100.737L300.036 100.267C301.015 100.51 301.91 100.759 302.77 101.031L302.6 101.492ZM297.151 100.122C296.314 99.9511 295.405 99.7805 294.373 99.5981L294.471 99.1191C295.509 99.303 296.421 99.475 297.263 99.6456L297.151 100.122ZM39.6681 99.7346L39.1488 99.653C39.3091 98.7884 39.4694 97.9164 39.6537 97.0622L40.1698 97.1541C39.9935 98.0039 39.8252 98.8803 39.6681 99.7346ZM291.589 99.1221L290.739 98.9738C290.098 98.867 289.442 98.7602 288.79 98.649L288.883 98.17C289.535 98.2812 290.186 98.388 290.832 98.4948L291.68 98.6356L291.589 99.1221ZM285.993 98.167C284.988 97.9816 284.07 97.8037 283.206 97.6198L283.323 97.1452C284.188 97.3276 285.095 97.5056 286.096 97.6895L285.993 98.167ZM280.439 96.9806C279.493 96.7448 278.573 96.4927 277.704 96.2317L277.865 95.7675C278.727 96.027 279.638 96.2777 280.575 96.509L280.439 96.9806ZM275.018 95.3419C274.121 95.0156 273.239 94.6627 272.399 94.2934L272.625 93.8485C273.454 94.2133 274.324 94.5618 275.21 94.8866L275.018 95.3419ZM40.7389 94.5796L40.2243 94.4773C40.4247 93.6187 40.6363 92.7555 40.8559 91.9102L41.3672 92.0244C41.146 92.8712 40.9344 93.7314 40.7389 94.5796ZM269.87 93.0714C269.043 92.6265 268.228 92.1638 267.449 91.673L267.746 91.2696C268.512 91.7545 269.315 92.2172 270.131 92.6488L269.87 93.0714ZM265.157 90.1054C264.425 89.5597 263.702 88.9754 263.009 88.3703L263.372 88.0159C264.054 88.6091 264.766 89.1889 265.487 89.7273L265.157 90.1054ZM42.0596 89.4885L41.5515 89.3639C41.7935 88.5171 42.0516 87.6629 42.3161 86.828L42.821 86.9644C42.5581 87.7964 42.3017 88.6476 42.0596 89.4885ZM261.012 86.4854C260.385 85.8462 259.765 85.1685 259.172 84.4715L259.586 84.1749C260.171 84.863 260.783 85.5318 261.402 86.1621L261.012 86.4854ZM43.6497 84.4582L43.148 84.3099C43.4365 83.4749 43.741 82.6355 44.0504 81.8125L44.5473 81.9726C44.2379 82.7913 43.9446 83.6277 43.6497 84.4582ZM257.483 82.3478C256.955 81.639 256.436 80.893 255.939 80.1322L256.389 79.8801C256.882 80.6335 257.394 81.3631 257.915 82.072L257.483 82.3478ZM45.5138 79.5094L45.0217 79.3373C45.3567 78.5187 45.7078 77.6942 46.0636 76.8874L46.5445 77.0713C46.1966 77.8736 45.8472 78.6952 45.5138 79.5094ZM254.529 77.841C254.091 77.0847 253.661 76.2928 253.246 75.489L253.727 75.2799C254.136 76.0777 254.562 76.8622 254.997 77.6126L254.529 77.841ZM47.6585 74.66L47.1776 74.4642C47.5591 73.6619 47.9582 72.8566 48.3621 72.0692L48.843 72.2783C48.4326 73.0613 48.0383 73.8621 47.6585 74.66ZM252.091 73.085C251.73 72.2946 251.374 71.473 251.033 70.641L251.525 70.469C251.863 71.295 252.217 72.1107 252.575 72.8952L252.091 73.085ZM50.0868 69.9277L49.6188 69.7067C50.0467 68.9267 50.4939 68.1422 50.946 67.3769L51.4076 67.6098C50.9588 68.372 50.5164 69.1521 50.0868 69.9277ZM250.074 68.1629C249.776 67.3503 249.483 66.5079 249.202 65.6581L249.706 65.5098C249.984 66.3552 250.276 67.1931 250.573 67.9998L250.074 68.1629ZM52.7989 65.3289L52.3453 65.0827C52.8261 64.3264 53.3166 63.5686 53.8151 62.8271L54.2623 63.0851C53.7654 63.8207 53.2733 64.5756 52.7989 65.3289ZM248.407 63.1296C248.162 62.3006 247.926 61.4435 247.687 60.5804L248.199 60.4632C248.428 61.3219 248.67 62.1761 248.915 62.9991L248.407 63.1296ZM55.793 60.8814L55.3555 60.6189C55.878 59.8908 56.4198 59.1596 56.9583 58.4463L57.3879 58.7266C56.8525 59.4325 56.314 60.1577 55.793 60.8814ZM247.001 58.04C246.751 57.2125 246.461 56.379 246.141 55.5648L246.634 55.3973C246.955 56.2248 247.255 57.0701 247.508 57.9095L247.001 58.04ZM59.0629 56.6044L58.643 56.3078C59.212 55.6093 59.7986 54.9079 60.3885 54.2316L60.7988 54.5356C60.2122 55.2134 59.6287 55.9089 59.0629 56.6044ZM245.075 53.152C244.692 52.3705 244.273 51.5845 243.82 50.8163L244.283 50.5849C244.738 51.362 245.166 52.1584 245.554 52.9577L245.075 53.152ZM62.5988 52.5128L62.1981 52.1969C62.8088 51.5311 63.4404 50.8622 64.0719 50.2142L64.4614 50.5345C63.8347 51.1855 63.2079 51.8499 62.5988 52.5128ZM66.3848 48.6199L66.0033 48.2833C66.6557 47.6516 67.3273 47.0198 68.0005 46.4043L68.3692 46.7514C67.7056 47.3624 67.0372 47.9912 66.3848 48.6199ZM242.38 48.5666C241.885 47.8414 241.351 47.1147 240.795 46.4073L241.222 46.1211C241.784 46.8374 242.324 47.573 242.824 48.3056L242.38 48.5666ZM70.4177 44.9362L70.0586 44.5803C70.7479 43.9871 71.4579 43.3939 72.168 42.8125L72.5158 43.1773C71.809 43.7527 71.1037 44.3445 70.4177 44.9362ZM239.08 44.343C238.493 43.6801 237.87 43.0083 237.229 42.3691L237.617 42.0399C238.258 42.6939 238.899 43.3642 239.487 44.0345L239.08 44.343ZM74.6685 41.4734L74.3319 41.0997C75.0564 40.542 75.8017 39.9844 76.5471 39.4446L76.8676 39.8272C76.1303 40.3656 75.3898 40.9187 74.6685 41.4734ZM235.264 40.4857C234.603 39.8851 233.909 39.283 233.201 38.6987L233.552 38.3353C234.267 38.9285 234.967 39.5321 235.635 40.1387L235.264 40.4857ZM79.1165 38.2419L78.7959 37.8519C79.5508 37.3343 80.3266 36.8138 81.0992 36.3155L81.4022 36.7144C80.6376 37.2127 79.8666 37.7273 79.1165 38.2419ZM231.05 36.9992C230.33 36.4549 229.58 35.9136 228.82 35.3871L229.141 34.9971C229.905 35.528 230.662 36.0738 231.385 36.6284L231.05 36.9992ZM83.7456 35.2433L83.4554 34.8369C84.2408 34.3564 85.0455 33.8789 85.8469 33.4162L86.1242 33.83C85.3276 34.2897 84.5262 34.7658 83.7456 35.2433ZM226.522 33.8582C225.757 33.3702 224.964 32.8823 224.162 32.4107L224.446 32C225.247 32.4745 226.049 32.9654 226.821 33.4578L226.522 33.8582ZM88.5446 32.473L88.2785 32.0533C89.0799 31.6084 89.9182 31.1739 90.7485 30.7483L91.0034 31.1739C90.1779 31.5966 89.3508 32.0341 88.5446 32.473ZM221.743 31.0405C220.942 30.603 220.115 30.167 219.281 29.7443L219.535 29.3172C220.371 29.7428 221.205 30.1803 222.011 30.6208L221.743 31.0405ZM93.4926 29.9327L93.249 29.5011C94.0841 29.0962 94.9384 28.6958 95.7879 28.3147L96.0188 28.7522C95.1789 29.1318 94.3293 29.5308 93.4974 29.9327H93.4926ZM216.776 28.5223C215.946 28.1323 215.09 27.7437 214.231 27.3685L214.455 26.9236C215.319 27.3018 216.18 27.6918 217.02 28.0833L216.776 28.5223ZM98.5786 27.6207L98.3574 27.1758C99.2133 26.8109 100.087 26.4491 100.957 26.1006L101.166 26.5455C100.305 26.8969 99.4345 27.2514 98.5834 27.6207H98.5786ZM211.652 26.286C210.797 25.9404 209.919 25.5964 209.041 25.2656L209.239 24.8207C210.121 25.1529 211.003 25.4985 211.863 25.847L211.652 26.286ZM103.778 25.5445L103.58 25.0996C104.453 24.7733 105.343 24.4485 106.231 24.1386L106.418 24.5938C105.543 24.8875 104.655 25.2108 103.786 25.5356L103.778 25.5445ZM206.399 24.3121C205.524 24.0051 204.636 23.7041 203.735 23.4149L203.911 22.9507C204.809 23.2473 205.708 23.5439 206.588 23.8523L206.399 24.3121ZM109.081 23.6848L108.906 23.2265C109.795 22.9299 110.701 22.6496 111.6 22.3753L111.761 22.838C110.877 23.099 109.983 23.3867 109.089 23.6759L109.081 23.6848ZM201.049 22.5755C200.157 22.3085 199.245 22.0461 198.341 21.7954L198.492 21.3298C199.401 21.5819 200.315 21.8444 201.217 22.1128L201.049 22.5755ZM114.471 22.0372L114.311 21.5715C115.213 21.3164 116.132 21.0673 117.044 20.83L117.186 21.2986C116.292 21.5344 115.375 21.7836 114.471 22.0372ZM195.617 21.0628C194.713 20.833 193.789 20.6075 192.874 20.394L193.004 19.9224C193.922 20.1374 194.849 20.3673 195.756 20.5942L195.617 21.0628ZM119.93 20.6179L119.797 20.1463C120.708 19.9283 121.637 19.7148 122.561 19.5131L122.683 19.9862C121.769 20.1834 120.842 20.3955 119.937 20.6135L119.93 20.6179ZM190.127 19.78C189.211 19.5858 188.28 19.3959 187.357 19.218L187.464 18.7419C188.391 18.9199 189.327 19.1097 190.245 19.3055L190.127 19.78ZM125.457 19.4019L125.347 18.9273C126.268 18.7419 127.206 18.564 128.134 18.3964L128.235 18.8754C127.307 19.0415 126.372 19.2195 125.454 19.4019H125.457ZM184.574 18.7078C183.653 18.5491 182.713 18.3949 181.782 18.2511L181.869 17.7706C182.803 17.9189 183.746 18.0672 184.672 18.2303L184.574 18.7078ZM131.022 18.3994L130.933 17.9189C131.857 17.7706 132.802 17.6223 133.739 17.4932L133.819 17.9737C132.883 18.1072 131.942 18.2496 131.019 18.3994H131.022ZM178.98 17.8432C178.051 17.7157 177.105 17.5956 176.17 17.4858L176.236 17.0024C177.175 17.1136 178.124 17.2337 179.057 17.3613L178.98 17.8432ZM136.623 17.5985L136.552 17.1166C137.488 16.9994 138.437 16.8897 139.373 16.7903L139.434 17.2738C138.497 17.3731 137.552 17.4829 136.62 17.5985H136.623ZM173.353 17.1774C172.417 17.0839 171.468 16.9964 170.53 16.9193L170.578 16.4344C171.517 16.5115 172.471 16.599 173.41 16.6939L173.353 17.1774ZM142.257 16.9994L142.206 16.5145C143.145 16.4314 144.097 16.3543 145.036 16.2876L145.076 16.7725C144.124 16.8392 143.182 16.9164 142.247 16.9994H142.257ZM167.709 16.7028C166.773 16.642 165.821 16.5871 164.878 16.5426L164.905 16.0562C165.851 16.1022 166.806 16.1556 167.746 16.2179L167.709 16.7028ZM147.901 16.5901L147.87 16.1037C148.809 16.0532 149.763 16.0102 150.706 15.9746L150.726 16.4611C149.778 16.5011 148.827 16.5456 147.891 16.596L147.901 16.5901ZM162.044 16.4284C161.105 16.4003 160.153 16.378 159.212 16.3647V15.8783C160.156 15.8916 161.111 15.9138 162.054 15.942L162.044 16.4284ZM153.549 16.381L153.538 15.8946C154.476 15.8753 155.431 15.8649 156.373 15.8619V16.3484C155.429 16.3573 154.477 16.3676 153.543 16.3869L153.549 16.381Z" fill="#E0E0E0"/>
<path d="M188.449 88.502H99.1565V91.6124H188.449V88.502Z" fill="#E8E8E8"/>
<path d="M188.449 98.6357H99.1565V101.746H188.449V98.6357Z" fill="#E8E8E8"/>
<path d="M188.449 108.413H99.1565V111.523H188.449V108.413Z" fill="#E8E8E8"/>
<path d="M188.449 118.548H99.1565V121.658H188.449V118.548Z" fill="#E8E8E8"/>
<path d="M188.449 129.932H99.1565V133.043H188.449V129.932Z" fill="#E8E8E8"/>
<path d="M188.449 140.068H99.1565V143.178H188.449V140.068Z" fill="#E8E8E8"/>
<path d="M188.449 149.845H99.1565V152.955H188.449V149.845Z" fill="#E8E8E8"/>
<path d="M188.449 159.98H99.1565V163.09H188.449V159.98Z" fill="#E8E8E8"/>
<path d="M88.8339 85.8356H81.1956C79.8059 85.8356 78.6794 86.9621 78.6794 88.3517V95.99C78.6794 97.3796 79.8059 98.5061 81.1956 98.5061H88.8339C90.2235 98.5061 91.35 97.3796 91.35 95.99V88.3517C91.35 86.9621 90.2235 85.8356 88.8339 85.8356Z" fill="#4CA1F4"/>
<path d="M88.8339 125.553H81.1956C79.8059 125.553 78.6794 126.68 78.6794 128.07V135.708C78.6794 137.098 79.8059 138.224 81.1956 138.224H88.8339C90.2235 138.224 91.35 137.098 91.35 135.708V128.07C91.35 126.68 90.2235 125.553 88.8339 125.553Z" fill="#4CA1F4"/>
<path d="M84.5835 134.951L81.0674 131.897C80.9967 131.838 80.9386 131.766 80.8962 131.684C80.8539 131.602 80.8283 131.513 80.821 131.421C80.8136 131.329 80.8246 131.237 80.8533 131.15C80.882 131.062 80.9279 130.982 80.9882 130.912C81.0486 130.843 81.1222 130.786 81.2047 130.745C81.2872 130.705 81.377 130.681 81.4689 130.675C81.5607 130.67 81.6527 130.683 81.7395 130.713C81.8263 130.743 81.9062 130.791 81.9744 130.853L84.4611 133.012L88.0007 129.058C88.0613 128.99 88.1345 128.935 88.2164 128.895C88.2983 128.856 88.3871 128.833 88.4778 128.828C88.5686 128.823 88.6594 128.835 88.7452 128.865C88.831 128.895 88.91 128.942 88.9778 129.002C89.0456 129.063 89.1008 129.136 89.1403 129.218C89.1798 129.3 89.2027 129.389 89.2078 129.48C89.213 129.57 89.2002 129.661 89.1702 129.747C89.1402 129.833 89.0937 129.912 89.0331 129.98L84.5835 134.951Z" fill="white"/>
<path d="M88.8339 105.616H81.1956C79.8059 105.616 78.6794 106.743 78.6794 108.132V115.771C78.6794 117.16 79.8059 118.287 81.1956 118.287H88.8339C90.2235 118.287 91.35 117.16 91.35 115.771V108.132C91.35 106.743 90.2235 105.616 88.8339 105.616Z" fill="#4CA1F4"/>
<path d="M84.5835 115.014L81.0674 111.963C80.9967 111.904 80.9386 111.831 80.8962 111.75C80.8539 111.668 80.8283 111.579 80.821 111.487C80.8136 111.395 80.8246 111.303 80.8533 111.216C80.882 111.128 80.9279 111.047 80.9882 110.978C81.0486 110.908 81.1222 110.852 81.2047 110.811C81.2872 110.77 81.377 110.747 81.4689 110.741C81.5607 110.735 81.6527 110.748 81.7395 110.779C81.8263 110.809 81.9062 110.857 81.9744 110.918L84.4611 113.079L88.0007 109.125C88.0613 109.057 88.1345 109.002 88.2164 108.963C88.2983 108.923 88.3871 108.9 88.4778 108.895C88.5686 108.89 88.6594 108.903 88.7452 108.933C88.831 108.963 88.91 109.009 88.9778 109.07C89.0456 109.13 89.1008 109.204 89.1403 109.285C89.1798 109.367 89.2027 109.456 89.2078 109.547C89.213 109.638 89.2002 109.728 89.1702 109.814C89.1402 109.9 89.0937 109.979 89.0331 110.047L84.5835 115.014Z" fill="white"/>
<path d="M88.8339 145.491H81.1956C79.8059 145.491 78.6794 146.617 78.6794 148.007V155.645C78.6794 157.035 79.8059 158.161 81.1956 158.161H88.8339C90.2235 158.161 91.35 157.035 91.35 155.645V148.007C91.35 146.617 90.2235 145.491 88.8339 145.491Z" fill="#4CA1F4"/>
<path d="M84.5835 154.889L81.0674 151.834C80.9967 151.775 80.9386 151.703 80.8962 151.621C80.8539 151.539 80.8283 151.45 80.821 151.358C80.8136 151.267 80.8246 151.174 80.8533 151.087C80.882 151 80.9279 150.919 80.9882 150.849C81.0486 150.78 81.1222 150.723 81.2047 150.682C81.2872 150.642 81.377 150.618 81.4689 150.612C81.5607 150.607 81.6527 150.62 81.7395 150.65C81.8263 150.681 81.9062 150.728 81.9744 150.79L84.4611 152.951L88.0007 148.995C88.0613 148.927 88.1345 148.872 88.2164 148.833C88.2983 148.793 88.3871 148.77 88.4778 148.765C88.5686 148.76 88.6594 148.773 88.7452 148.803C88.831 148.833 88.91 148.879 88.9778 148.94C89.0456 149 89.1008 149.074 89.1403 149.155C89.1798 149.237 89.2027 149.326 89.2078 149.417C89.213 149.508 89.2002 149.598 89.1702 149.684C89.1402 149.77 89.0937 149.849 89.0331 149.917L84.5835 154.889Z" fill="white"/>
<path d="M83.5361 93.1374C83.5353 92.9795 83.5461 92.8217 83.5685 92.6654C83.5893 92.5155 83.6305 92.3691 83.6909 92.2303C83.7563 92.0865 83.845 91.9544 83.9535 91.8395C84.0855 91.7059 84.2378 91.5939 84.4048 91.5077L84.7735 91.3086C84.9304 91.2249 85.0812 91.1303 85.2248 91.0254C85.3681 90.9201 85.4961 90.7955 85.6053 90.6552C85.7098 90.5224 85.7665 90.3582 85.7661 90.1891C85.7711 90.0831 85.7502 89.9775 85.7052 89.8814C85.6602 89.7853 85.5925 89.7016 85.508 89.6375C85.3399 89.5056 85.1317 89.4353 84.918 89.4384C84.7866 89.4357 84.6564 89.4634 84.5375 89.5195C84.4318 89.5713 84.3327 89.6357 84.2425 89.7113C84.1545 89.7843 84.0771 89.8692 84.0124 89.9635L83.8399 90.2098L82.7367 89.4384C82.9139 89.0125 83.2244 88.6554 83.6216 88.4208C84.0342 88.175 84.5071 88.0489 84.9873 88.0565C85.2634 88.0567 85.5381 88.0964 85.8029 88.1745C86.0682 88.25 86.3158 88.3773 86.5315 88.5491C86.7529 88.7293 86.9321 88.9559 87.0566 89.2128C87.2 89.5215 87.2696 89.8592 87.2601 90.1995C87.2727 90.5574 87.1854 90.9119 87.0079 91.223C86.8191 91.5189 86.5641 91.7668 86.2631 91.9472C86.1162 92.0449 85.9641 92.1345 85.8074 92.2156C85.6616 92.2894 85.5203 92.3717 85.3841 92.4619C85.2638 92.5412 85.1585 92.641 85.0729 92.7569C84.9928 92.8695 84.9514 93.0051 84.9549 93.1433L83.5361 93.1374ZM83.5685 95.7626V94.155H84.9726V95.7626H83.5685Z" fill="white"/>
<path d="M119.367 83.2868C118.529 84.0634 117.787 84.9361 117.154 85.887C116.104 87.4621 113.32 87.5462 113.197 89.6966C113.075 91.8469 116.988 91.9089 119.039 91.2127C121.091 90.5166 121.399 88.4105 122.644 87.8884C123.889 87.3663 124.529 86.9371 124.434 85.9121C124.34 84.887 123.651 83.2234 123.651 83.2234C123.251 83.3519 122.842 83.4505 122.427 83.5184C121.967 83.57 120.442 83.5877 119.367 83.2868Z" fill="#252840"/>
<path d="M133.437 25.0298C133.437 25.0298 132.651 29.7081 132.016 32.7979C131.758 34.0516 131.527 35.0427 131.382 35.3553C131.202 35.7491 129.724 37.3346 127.918 39.19C124.747 42.4539 120.557 46.5643 120.557 46.5643L118.924 43.4612C118.924 43.4612 122.645 39.0985 125.167 36.1872C126.335 34.8406 127.247 33.8038 127.413 33.6548C127.94 33.1829 128.552 28.5341 129.413 24.7039C130.275 20.8737 131.994 18.7513 131.994 18.7513L133.437 25.0298Z" fill="#FFBF55"/>
<path d="M127.921 39.1944C124.75 42.4582 120.56 46.5687 120.56 46.5687L118.924 43.4612C118.924 43.4612 122.645 39.0985 125.167 36.1871C125.937 36.5662 127.356 37.4717 127.921 39.1944Z" fill="#EEA886"/>
<path d="M148.253 82.0068C148.253 82.0068 149.33 83.197 149.967 83.9241C150.604 84.6512 153.044 85.9358 153.055 88.0803C153.07 90.4047 151.256 90.2011 149.643 90.1156C148.029 90.0301 146.718 88.9165 146.04 87.5995C145.361 86.2824 143.551 85.9373 143.425 84.8769C143.298 83.8165 144.262 81.9036 144.262 81.9036L148.253 82.0068Z" fill="#252840"/>
<path d="M144.47 79.9198L144.262 81.8991C144.262 81.8991 147.631 83.3739 148.253 82.0067L148.106 80.2443L144.47 79.9198Z" fill="#5F8CC9"/>
<path d="M119.551 81.8549L119.368 83.287C120.766 83.7089 122.26 83.6867 123.645 83.2235L123.691 81.9493L119.551 81.8549Z" fill="#5F8CC9"/>
<path d="M148.443 45.9374C148.561 46.3533 126.887 45.9374 126.887 45.9374C126.887 45.9374 132.882 41.5733 133.27 40.4067C133.658 39.2401 131.744 32.2463 131.5 29.9706C131.3 28.1491 130.8 20.0005 132 18.7616C133.254 17.4608 137.773 16.098 137.773 16.098L144.361 16.3414C144.999 16.4793 145.624 16.6768 146.225 16.9313C147.002 17.2927 151.448 18.8752 152.169 21.0963C152.89 23.3175 147.734 30.4573 147.734 30.4573C147.734 30.4573 147.724 30.7773 147.709 31.3039C147.688 32.0044 147.659 33.0737 147.632 34.2256C147.598 35.7225 147.567 37.3714 147.567 38.5749C147.561 41.3993 148.327 45.5215 148.443 45.9374Z" fill="#FFBF55"/>
<path d="M148.443 45.9374C148.443 45.9374 151.393 50.2676 151.433 53.2233C151.473 56.1789 150.342 64.3762 150.253 66C150.165 67.6238 148.644 81.1557 148.644 81.1557C148.644 81.1557 147.464 82.2515 143.924 80.8784C143.924 80.8784 143.144 68.0471 143.06 66.671C142.976 65.295 142.978 58.9693 142.186 58.0534C141.394 57.1375 136.608 54.2645 135.982 53.7232C135.357 53.182 124.478 55.7792 123.338 56.0742C120.389 56.8396 121.732 61.9736 122.386 64.2788C123.477 68.1312 124.433 82.0435 124.433 82.0435C124.433 82.0435 122.33 82.9403 118.808 82.1822C118.808 82.1822 111.892 57.0623 111.671 54.5639C111.449 52.0655 111.339 47.9462 128.382 44.8151L148.443 45.9374Z" fill="#323657"/>
<path d="M139.572 1.77863C139.572 1.77863 133.853 0.488127 135.159 7.68545C136.466 14.8828 137.841 15.4477 141.29 13.958C144.74 12.4684 144.432 7.85801 144.606 5.59705C144.78 3.33609 141.399 1.8568 139.572 1.77863Z" fill="#EEA886"/>
<path d="M138.062 17.9387C138.062 17.9387 140.594 20.6245 144.597 18.1836C144.597 18.1836 143.702 12.3652 144.172 9.53054C144.643 6.69585 138.951 13.9227 138.951 13.9227C139.025 13.961 139.075 14.2324 139.087 14.6173C139.095 15.0028 139.075 15.3883 139.027 15.7707C138.909 16.7116 138.617 17.7072 138.062 17.9387Z" fill="#EEA886"/>
<path d="M142.641 6.73132C142.716 6.09565 143.969 5.86262 144.073 6.81539C144.178 7.76815 143.503 9.43769 143.026 9.27398C142.55 9.11027 142.538 7.60591 142.641 6.73132Z" fill="#EEA886"/>
<path d="M144.33 9.29009C144.33 9.29009 144.182 7.02323 143.354 6.95244C142.525 6.88164 142.399 7.79458 142.399 7.79458L141.563 7.95239C141.563 7.95239 141.827 5.96428 141 5.61769C140.172 5.27109 135.641 6.71203 134.978 6.12799C134.314 5.54394 134.627 1.51314 135.827 0.965971C137.028 0.418797 140.343 -0.821562 142.772 0.818485C142.772 0.818485 144.666 0.60168 144.946 2.12964C145.227 3.65759 144.845 8.15298 144.33 9.29009Z" fill="#3A3F47"/>
<path d="M139.027 15.7707C143.156 14.4964 143.467 12.0098 143.472 11.9714C142.112 14.3076 139.087 14.6173 139.087 14.6173C139.096 15.0028 139.075 15.3883 139.027 15.7707Z" fill="#A77860"/>
<path d="M146.287 16.9564C146.287 16.9564 143.259 22.9753 138.378 22.5859C133.496 22.1965 137.546 16.1467 137.767 16.0965C138.012 16.0301 142.777 14.8429 146.287 16.9564Z" fill="#EEA886"/>
<path d="M124.406 45.6321C124.406 45.6321 139.374 47.4772 148.446 45.9374L131.118 43.7723C131.118 43.7723 131.018 44.2133 124.406 45.6321Z" fill="#FFBF55"/>
<path d="M135.602 43.0865L134.487 43.6514C134.487 43.6514 134.74 45.4213 135.351 45.9596L136.603 45.6395C136.603 45.6395 136.342 43.7016 135.602 43.0865Z" fill="#EEA886"/>
<path d="M152.923 39.4643C152.7 39.7224 149.758 40.9052 146.433 42.1854C141.891 43.9361 136.77 45.5938 136.77 45.5938L135.603 43.0866C135.603 43.0866 140.969 40.1708 144.6 38.1266C146.312 37.1606 147.635 36.3892 147.823 36.2093C148.405 35.6547 148.56 34.7654 148.128 33.2124C147.696 31.6593 146.712 24.5239 146.601 23.6921C146.491 22.8603 146.879 20.6377 148.961 20.5271C151.044 20.4164 152.103 21.0034 152.103 21.0034C152.103 21.0034 152.625 21.2217 153.014 26.2731C153.403 31.3245 153.451 38.8522 152.923 39.4643Z" fill="#FFBF55"/>
<path d="M147.703 31.2964C147.682 31.997 147.653 33.0663 147.626 34.2181C145.594 29.239 146.768 25.2643 146.788 25.1964C146.569 26.5489 147.684 31.2301 147.703 31.2964Z" fill="#B08439"/>
<path d="M132.016 32.798C131.758 34.0516 131.527 35.0427 131.382 35.3554C130.689 31.9971 131.313 27.6964 131.313 27.6964C131.409 29.7509 132.016 32.798 132.016 32.798Z" fill="#B08439"/>
<path d="M146.433 42.1854C141.891 43.9361 136.603 45.644 136.603 45.644L135.602 43.0865C135.602 43.0865 140.967 40.1707 144.598 38.1266C144.587 38.131 145.914 38.7741 146.433 42.1854Z" fill="#EEA886"/>
<path d="M135.279 45.793L114.004 45.4789L124.745 50.9329L135.279 45.793Z" fill="#5E5853"/>
<path d="M124.745 50.9329L135.279 46.8534V45.793L123.913 49.8931L124.745 50.9329Z" fill="#91887F"/>
<path d="M134.729 43.6942C134.729 43.6942 133.401 43.4877 132.481 43.2739C131.77 43.1087 130.002 43.3358 129.552 43.7916C129.102 44.2473 127.67 47.4271 127.399 47.6262C127.127 47.8253 127.546 48.2693 128.014 48.0436C128.014 48.0436 128.456 49.4344 129.528 48.9138C130.601 48.3931 131.337 47.2575 131.901 47.0569C132.466 46.8563 135.751 45.8461 135.751 45.8461C135.751 45.8461 135.575 43.355 134.729 43.6942Z" fill="#EEA886"/>
<path d="M129.876 43.5836C129.876 43.5836 129.022 43.9966 128.8 44.1736C128.577 44.3505 127.674 45.0334 127.455 45.1927C127.235 45.352 127.785 45.8048 129.4 45.1057C131.015 44.4066 129.876 43.5836 129.876 43.5836Z" fill="#EEA886"/>
<path d="M124.745 50.9328L118.417 33.6548L98.0165 33.9881L104.047 49.9107L124.745 50.9328Z" fill="#6E6760"/>
<path d="M111.889 41.2991C112.513 42.5439 112.332 43.8993 111.47 44.327C110.609 44.7547 109.417 44.091 108.795 42.8521C108.172 41.6133 108.361 40.2534 109.215 39.8257C110.069 39.398 111.267 40.0543 111.889 41.2991Z" fill="#807066"/>
<path d="M203.01 116.078H194.728C194.448 116.078 194.222 116.304 194.222 116.584V118.373C194.222 118.652 194.448 118.878 194.728 118.878H203.01C203.29 118.878 203.516 118.652 203.516 118.373V116.584C203.516 116.304 203.29 116.078 203.01 116.078Z" fill="#E0E0E0"/>
<path d="M203.01 122.794H194.728C194.448 122.794 194.222 123.021 194.222 123.3V125.089C194.222 125.368 194.448 125.595 194.728 125.595H203.01C203.29 125.595 203.516 125.368 203.516 125.089V123.3C203.516 123.021 203.29 122.794 203.01 122.794Z" fill="#E0E0E0"/>
<path d="M203.01 129.51H194.728C194.448 129.51 194.222 129.737 194.222 130.016V131.805C194.222 132.085 194.448 132.311 194.728 132.311H203.01C203.29 132.311 203.516 132.085 203.516 131.805V130.016C203.516 129.737 203.29 129.51 203.01 129.51Z" fill="#E0E0E0"/>
<path d="M203.01 136.227H194.728C194.448 136.227 194.222 136.454 194.222 136.733V138.522C194.222 138.801 194.448 139.028 194.728 139.028H203.01C203.29 139.028 203.516 138.801 203.516 138.522V136.733C203.516 136.454 203.29 136.227 203.01 136.227Z" fill="#E0E0E0"/>
<path d="M203.01 142.942H194.728C194.448 142.942 194.222 143.169 194.222 143.448V145.237C194.222 145.516 194.448 145.743 194.728 145.743H203.01C203.29 145.743 203.516 145.516 203.516 145.237V143.448C203.516 143.169 203.29 142.942 203.01 142.942Z" fill="#E0E0E0"/>
<path d="M203.01 149.659H194.728C194.448 149.659 194.222 149.885 194.222 150.165V151.954C194.222 152.233 194.448 152.459 194.728 152.459H203.01C203.29 152.459 203.516 152.233 203.516 151.954V150.165C203.516 149.885 203.29 149.659 203.01 149.659Z" fill="#E0E0E0"/>
<path d="M209.493 116.078H207.86C207.581 116.078 207.354 116.304 207.354 116.584V118.373C207.354 118.652 207.581 118.878 207.86 118.878H209.493C209.772 118.878 209.998 118.652 209.998 118.373V116.584C209.998 116.304 209.772 116.078 209.493 116.078Z" fill="#E0E0E0"/>
<path d="M209.493 122.794H207.86C207.581 122.794 207.354 123.021 207.354 123.3V125.089C207.354 125.368 207.581 125.595 207.86 125.595H209.493C209.772 125.595 209.998 125.368 209.998 125.089V123.3C209.998 123.021 209.772 122.794 209.493 122.794Z" fill="#E0E0E0"/>
<path d="M209.493 129.51H207.86C207.581 129.51 207.354 129.737 207.354 130.016V131.805C207.354 132.085 207.581 132.311 207.86 132.311H209.493C209.772 132.311 209.998 132.085 209.998 131.805V130.016C209.998 129.737 209.772 129.51 209.493 129.51Z" fill="#E0E0E0"/>
<path d="M209.493 136.227H207.86C207.581 136.227 207.354 136.454 207.354 136.733V138.522C207.354 138.801 207.581 139.028 207.86 139.028H209.493C209.772 139.028 209.998 138.801 209.998 138.522V136.733C209.998 136.454 209.772 136.227 209.493 136.227Z" fill="#E0E0E0"/>
<path d="M209.493 142.942H207.86C207.581 142.942 207.354 143.169 207.354 143.448V145.237C207.354 145.516 207.581 145.743 207.86 145.743H209.493C209.772 145.743 209.998 145.516 209.998 145.237V143.448C209.998 143.169 209.772 142.942 209.493 142.942Z" fill="#E0E0E0"/>
<path d="M209.493 149.659H207.86C207.581 149.659 207.354 149.885 207.354 150.165V151.954C207.354 152.233 207.581 152.459 207.86 152.459H209.493C209.772 152.459 209.998 152.233 209.998 151.954V150.165C209.998 149.885 209.772 149.659 209.493 149.659Z" fill="#E0E0E0"/>
<path d="M180.143 186.858C180.143 186.858 180.678 188.961 180.75 189.276C180.823 189.592 184.119 188.722 184.119 188.722V186.15C184.119 186.15 180.529 186.511 180.143 186.858Z" fill="#666FB3"/>
<path d="M180.685 189.009C180.685 189.009 179.762 190.41 178.796 191.083C177.83 191.756 174.099 192.623 173.554 193.269C173.161 193.736 172.615 195.502 178.6 194.695C182.852 194.123 184.949 194.267 185.333 193.527C185.716 192.787 184.119 188.492 184.119 188.492C184.119 188.492 183.21 188.987 180.685 189.009Z" fill="#2D314F"/>
<path d="M169.012 124.819L167.506 124.965L181.448 268.186L182.954 268.04L169.012 124.819Z" fill="#B3DCFF"/>
<path d="M194.967 122.316L193.454 122.467L207.844 266.365L209.357 266.213L194.967 122.316Z" fill="#B3DCFF"/>
<path d="M192.818 124.572L168.463 126.939L168.609 128.445L192.964 126.078L192.818 124.572Z" fill="#B3DCFF"/>
<path d="M193.917 135.898L169.562 138.264L169.708 139.77L194.063 137.404L193.917 135.898Z" fill="#B3DCFF"/>
<path d="M195.008 147.242L170.653 149.604L170.799 151.11L195.154 148.748L195.008 147.242Z" fill="#B3DCFF"/>
<path d="M196.104 158.572L171.748 160.934L171.894 162.44L196.25 160.078L196.104 158.572Z" fill="#B3DCFF"/>
<path d="M197.203 169.893L172.848 172.256L172.994 173.762L197.35 171.399L197.203 169.893Z" fill="#B3DCFF"/>
<path d="M198.314 181.199L173.959 183.566L174.106 185.072L198.461 182.705L198.314 181.199Z" fill="#B3DCFF"/>
<path d="M199.416 192.521L175.061 194.888L175.208 196.394L199.562 194.028L199.416 192.521Z" fill="#B3DCFF"/>
<path d="M200.499 203.87L176.144 206.233L176.29 207.739L200.645 205.377L200.499 203.87Z" fill="#B3DCFF"/>
<path d="M201.6 215.193L177.245 217.556L177.391 219.062L201.746 216.7L201.6 215.193Z" fill="#B3DCFF"/>
<path d="M202.699 226.519L178.344 228.881L178.49 230.388L202.845 228.025L202.699 226.519Z" fill="#B3DCFF"/>
<path d="M203.799 237.843L179.444 240.206L179.59 241.712L203.945 239.349L203.799 237.843Z" fill="#B3DCFF"/>
<path d="M204.896 249.171L180.541 251.533L180.687 253.039L205.042 250.677L204.896 249.171Z" fill="#B3DCFF"/>
<path d="M205.997 260.492L181.642 262.854L181.788 264.36L206.143 261.998L205.997 260.492Z" fill="#B3DCFF"/>
<path d="M147.916 104.975C147.916 104.975 148.227 105.36 148.445 105.462C148.445 105.462 148.858 105.618 149.143 105.746C149.217 105.777 149.29 105.813 149.36 105.854C149.56 105.978 149.961 106.308 150.526 106.47C151.091 106.633 153.635 107.208 153.635 107.208L154.225 105.698L154.65 104.476C154.65 104.476 152.29 101.423 151.786 101.211C151.738 101.191 151.688 101.174 151.638 101.159C151.196 101.021 150.8 101.106 150.559 101.061C150.469 101.044 149.57 100.944 149.379 101.131C149.264 101.228 149.176 101.353 149.123 101.493C149.07 101.634 149.053 101.785 149.075 101.934C149.075 101.934 148.568 102.466 148.532 102.966C148.532 102.966 148.048 103.442 148.178 104.069C148.177 104.066 147.74 104.603 147.916 104.975Z" fill="#EEA886"/>
<path d="M175.211 124.794C174.621 124.415 173.861 123.902 171.229 122.582C166.325 120.128 160.269 115.679 159.117 115.038C157.347 114.05 151.756 107.221 151.756 107.221C152.051 106.189 154.695 104.124 154.695 104.124C154.695 104.124 163.173 112.154 165.019 113.143C166.614 113.992 174.482 114.85 176.65 115.073L177.205 115.129C179.473 118.212 176.475 125.601 175.211 124.794Z" fill="#6F5BE0"/>
<path d="M176.075 142.588C176.075 142.588 173.677 151.496 173.044 154.682C172.493 157.456 171.383 164.847 171.227 166.603C171.071 168.36 178.306 185.367 179.062 188.431L185.657 187.372C185.657 187.372 178.699 169.674 180.513 165.741C183.213 159.891 183.564 160.067 185.691 155.248C187.818 150.43 192.686 150.315 193.995 141.374C193.995 141.379 177.845 139.752 176.075 142.588Z" fill="#2D314F"/>
<path d="M187.8 99.3053C187.8 99.3053 183.421 97.6697 181.402 101.003C179.383 104.336 179.576 111.011 181.784 111.831C183.992 112.651 187.308 112.224 188.439 110.138C189.57 108.053 190.589 105.035 190.541 103.021C190.492 101.006 188.954 99.8879 187.8 99.3053Z" fill="#EEA886"/>
<path d="M182.523 111.626C182.523 111.626 182.7 112.775 182.407 113.34C182.113 113.905 187.915 113.921 187.915 113.921C187.915 113.921 188.387 110.845 189.28 108.246C190.172 105.647 182.523 111.626 182.523 111.626Z" fill="#EEA886"/>
<path d="M189.275 108.246C189.275 108.246 188.875 108.907 187.24 108.65C185.604 108.393 183.612 106.22 182.93 105.981C182.249 105.742 182.241 105.342 182.241 105.342L181.814 105.966L181.09 106.012C181.09 106.012 181.75 104.066 180.753 103.273C179.756 102.479 181.786 96.9781 187.029 98.8098C187.029 98.8098 191.055 99.9189 190.908 102.202C190.76 104.485 190.181 107.106 189.275 108.246Z" fill="#323657"/>
<path d="M182.353 104.509C182.445 104.125 183.421 103.034 183.796 104.202C184.171 105.37 183.231 106.957 182.707 106.823C182.184 106.688 182.122 105.482 182.353 104.509Z" fill="#EEA886"/>
<path d="M199.058 128.372C199.009 128.946 198.353 129.568 197.906 129.875C197.611 130.077 197.265 130.191 196.907 130.204L196.648 130.213L192.096 130.36C192.096 130.36 188.713 119.425 195.059 115.256C195.256 115.281 199.497 123.101 199.058 128.372Z" fill="#6F5BE0"/>
<path d="M185.333 193.523C184.949 194.26 182.852 194.113 178.6 194.691C177.672 194.827 176.735 194.896 175.798 194.897L175.559 192.343C176.802 191.911 178.249 191.458 178.803 191.082C179.769 190.409 180.693 189.008 180.693 189.008C183.218 188.986 184.126 188.49 184.126 188.49C184.126 188.49 185.715 192.785 185.333 193.523Z" fill="#2D314F"/>
<path d="M182.519 113.007C182.519 113.007 186.091 112.177 188.103 112.859L188.406 113.14C188.406 113.14 189.018 114.32 186.716 114.414C184.414 114.508 180.793 114.679 182.519 113.007Z" fill="#6F5BE0"/>
<path d="M196.475 196.69C196.475 196.69 197.011 198.794 197.083 199.109C197.155 199.425 200.453 198.555 200.453 198.555V195.984C200.453 195.984 196.862 196.344 196.475 196.69Z" fill="#666FB3"/>
<path d="M193.995 141.379C193.995 141.379 195.197 146.337 195.552 151.302C195.881 155.89 196.48 160.921 196.956 165.718C197.487 171.068 199 179.715 199.078 182.576C199.157 185.437 201.566 197.947 201.566 197.947L195.406 198.655C195.406 198.655 191.403 176.559 190.458 174.299C189.512 172.04 184.825 155.937 184.667 154.129C184.51 152.321 193.995 141.379 193.995 141.379Z" fill="#2D314F"/>
<path d="M197.018 198.842C197.018 198.842 196.095 200.243 195.129 200.916C194.163 201.589 190.431 202.456 189.887 203.103C189.495 203.569 188.947 205.335 194.932 204.529C199.184 203.956 201.283 204.1 201.665 203.36C202.047 202.619 200.453 198.325 200.453 198.325C200.453 198.325 199.543 198.82 197.018 198.842Z" fill="#2D314F"/>
<path d="M174.829 153.715C174.304 153.639 176.131 138 175.992 137.019C175.898 136.364 175.913 131.282 175.951 128.112L175.38 124.906C174.975 124.62 174.556 124.356 174.124 124.113C173.33 123.654 172.333 123.13 171.227 122.577C171.355 121.819 171.445 121.223 171.479 120.875C171.755 118.058 173.647 116.566 174.724 115.937C174.96 115.795 175.206 115.672 175.461 115.569C175.868 115.395 176.27 115.228 176.657 115.067C179.241 114.005 182.522 113.002 182.522 113.002H187.793C187.793 113.002 191.806 113.805 194.198 114.783C194.503 114.909 194.792 115.068 195.062 115.258L194.346 130.286C194.346 130.289 194.346 130.292 194.346 130.295C194.346 130.302 194.346 130.308 194.346 130.314C194.024 132.429 193.683 134.923 193.571 136.673C193.524 137.386 194.341 141.22 194.767 144.74L196.257 153.16C196.257 153.16 195.388 156.651 174.829 153.715Z" fill="#6F5BE0"/>
<path d="M102.363 239.995C102.174 241.323 94.1937 246.914 92.6215 248.03C91.3605 248.926 90.2618 249.337 88.3562 250.054C84.0231 251.19 56.8325 259.301 56.8325 259.301C56.7787 259.016 56.688 258.738 56.5626 258.475C55.5479 258.88 54.4978 259.142 53.84 259.349C52.8283 259.666 44.7932 259.918 43.1488 260.233C41.5043 260.549 38.2154 261.056 36.8865 259.791C35.5576 258.526 37.708 255.809 39.5413 255.11C41.3745 254.411 48.0822 254.225 49.2842 254.097C50.4862 253.968 52.0673 253.527 52.8239 253.781C53.0628 253.861 54.1232 253.549 55.4624 253.086C55.4285 252.594 55.4211 252.284 55.4211 252.284L62.5594 250.219L61.2321 237.581C61.2321 237.581 64.3543 225.89 76.7579 234.819C76.7579 234.819 79.5262 235.633 80.4761 235.885C80.5807 235.904 80.6875 235.908 80.7932 235.895C82.6854 235.748 90.8222 233.292 93.7601 233.292C96.9237 233.292 97.9355 233.102 99.0696 233.671C100.204 234.24 102.553 238.668 102.363 239.995Z" fill="#787878"/>
<path d="M89.6507 259.797C88.3234 261.062 85.033 260.555 83.3885 260.239C81.744 259.924 73.7104 259.67 72.6972 259.354C71.684 259.039 69.7873 258.596 68.4599 257.71C68.2326 257.585 67.9947 257.481 67.749 257.399L65.7403 258.847L37.8064 249.955C36.1339 249.497 34.805 248.799 33.9201 248.03C32.4659 246.765 24.3689 241.324 24.1787 239.995C23.9884 238.667 26.329 234.243 27.4676 233.67C28.6062 233.096 29.6194 233.291 32.7771 233.291C35.9348 233.291 45.1129 236.137 46.0627 235.884C46.4933 235.768 47.39 235.314 48.2337 234.851C49.2484 234.298 50.1952 233.733 50.1952 233.733C63.7817 227.669 65.2934 237.593 65.2934 237.593L64.4896 249.845C64.4896 249.845 65.6223 250.405 67.0942 251.106L73.8284 253.008L72.9435 253.644C73.324 253.768 73.5939 253.824 73.7045 253.791C74.4626 253.538 76.0451 253.982 77.2442 254.107C78.4433 254.232 85.1509 254.424 86.9783 255.12C88.8057 255.816 90.9796 258.532 89.6507 259.797Z" fill="#787878"/>
<path d="M48.2367 234.851C49.1732 234.917 55.5033 238.584 57.0062 239.461C54.7231 238.268 46.0657 235.883 46.0657 235.883C46.4963 235.768 47.393 235.314 48.2367 234.851Z" fill="#787878"/>
<path d="M80.793 235.894C80.793 235.894 69.8878 238.54 67.8909 239.647C67.9823 239.581 73.6428 235.283 76.6088 234.711C76.6088 234.711 79.5261 235.631 80.4759 235.891C80.5805 235.91 80.6873 235.914 80.793 235.901V235.894Z" fill="#787878"/>
<path d="M89.6507 259.797C88.3234 261.062 85.0329 260.555 83.3885 260.239C81.744 259.924 73.7104 259.67 72.6972 259.354C72.4022 259.264 72.0423 259.163 71.6397 259.043C70.6412 258.748 69.4053 258.341 68.4599 257.716C68.2326 257.591 67.9947 257.487 67.749 257.405L72.8048 253.756L72.9523 253.651C73.3328 253.775 73.6028 253.831 73.7134 253.799C74.4714 253.545 76.054 253.989 77.253 254.114C78.4521 254.24 85.1598 254.431 86.9871 255.127C88.8145 255.824 90.9796 258.531 89.6507 259.797Z" fill="#EEA886"/>
<path d="M89.6512 259.797C88.3238 261.062 85.0334 260.555 83.3889 260.239C81.7444 259.924 73.7108 259.67 72.6976 259.355C72.4026 259.265 72.0428 259.163 71.6401 259.043C71.6401 259.043 73.8524 256.855 72.8067 253.75L72.9542 253.645C73.3347 253.769 73.6046 253.825 73.7153 253.793C74.4733 253.539 76.0559 253.983 77.2549 254.108C78.454 254.234 85.1617 254.426 86.989 255.122C88.8164 255.818 90.98 258.532 89.6512 259.797Z" fill="#C5CDDB"/>
<path d="M51.0095 237.645C51.0243 237.678 51.0213 237.702 50.9992 237.718C50.8738 237.813 50.8945 237.768 51.0095 237.645Z" fill="#E55353"/>
<path d="M87.5714 222.853C87.4653 222.639 81.703 213.575 80.1411 209.442C78.5792 205.31 74.8316 203.41 73.0618 202.82C72.4305 202.609 71.3037 202.243 70.112 201.859C67.9735 201.167 65.6358 200.416 65.6358 200.416H58.2615C58.2615 200.416 55.7041 201.273 52.9889 202.224C50.4816 203.109 47.8519 204.061 46.9611 204.506C45.1057 205.434 41.9849 212.054 41.3566 212.814C40.7284 213.573 35.8598 222.591 35.1622 226.057C34.6165 228.748 50.5937 236.633 51.0288 237.643C51.5347 237.081 53.862 234.851 53.862 234.851C53.862 234.851 53.1172 234.382 52.0671 233.692C56.3442 233.888 66.8039 233.519 68.3053 233.595C68.6274 233.608 68.9501 233.601 69.2714 233.574C69.7345 233.912 72.7299 236.558 72.7299 236.558C72.7299 236.558 80.1042 233.493 83.5038 230.068C88.3045 225.194 88.0995 223.928 87.5714 222.853ZM45.6072 228.85C44.0247 226.953 41.8478 225.804 42.3964 224.961C42.9451 224.117 47.5835 216.104 47.5835 216.104C47.5835 216.104 49.9875 221.377 50.663 224.119C51.3385 226.86 51.2839 228.114 50.9993 228.968C50.7441 229.732 50.5391 230.253 50.3105 232.53C48.4257 231.238 46.3314 229.72 45.6072 228.85ZM78.2385 227.944C77.6176 228.649 75.1634 230.208 72.957 231.493C72.7889 229.962 72.5352 227.555 72.5146 226.691C72.4718 225.383 73.0205 221.629 73.6945 220.201C74.3685 218.774 74.8331 214.846 74.8331 214.846C74.8331 214.846 80.4213 222.437 81.3077 223.238C82.1941 224.039 80.3328 225.564 78.2385 227.944Z" fill="#FFCE55"/>
<path d="M62.8232 180.131C62.8232 180.131 68.5958 181.041 67.7168 190.071C66.8378 199.102 61.7436 198.362 61.4029 198.353C61.0622 198.344 56.2896 198.516 55.9165 187.492C55.9165 187.492 55.7542 179.339 62.8232 180.131Z" fill="#EEA886"/>
<path d="M67.8055 187.52C67.8055 187.52 68.4382 186.844 68.6698 187.529C68.9013 188.213 67.807 191.26 67.7687 191.403C67.7687 191.403 67.6536 191.667 67.5017 191.521C67.3498 191.375 67.8055 187.52 67.8055 187.52Z" fill="#EEA886"/>
<path d="M56.073 187.406C56.073 187.406 55.4536 186.719 55.2088 187.398C54.9639 188.076 55.989 191.145 56.0347 191.288C56.0347 191.288 56.1453 191.557 56.3002 191.414C56.455 191.271 56.073 187.406 56.073 187.406Z" fill="#EEA886"/>
<path d="M67.8025 188.905L66.9765 190.009C66.9765 190.009 67.0001 187.588 66.8674 187.207C66.7346 186.827 66.5326 185.667 66.4249 185.393C66.3173 185.119 61.4694 183.762 57.1893 185.79C57.1893 185.79 57.3766 187.532 56.9666 187.686C56.5566 187.841 56.7587 190.523 56.7587 190.523L56.0788 189.756C56.0788 189.756 55.039 182.809 55.2956 182.086C55.5522 181.364 56.3708 177.008 65.1521 179.592C65.1521 179.592 67.8895 179.013 68.4381 180.902C68.9868 182.791 67.8025 188.905 67.8025 188.905Z" fill="#434343"/>
<path d="M54.3251 246.651C54.3251 246.651 45.4907 241.357 41.631 240.523C37.9851 239.736 36.6548 238.373 36.6548 238.373C36.6548 238.373 42.4539 238.373 46.3122 241.113C48.9389 242.975 54.3251 246.651 54.3251 246.651Z" fill="#474747"/>
<path d="M62.1802 250.343C62.1802 250.343 77.5482 242.274 83.8223 240.523C87.4151 239.521 88.7985 238.373 88.7985 238.373C88.7985 238.373 79.2974 239.301 73.5204 242.78C70.7668 244.438 62.1802 250.343 62.1802 250.343Z" fill="#474747"/>
<path d="M56.5652 258.48C55.5505 258.884 54.5004 259.147 53.8426 259.353C52.8308 259.67 44.7958 259.922 43.1513 260.238C41.5069 260.554 38.2179 261.061 36.8891 259.796C35.5602 258.53 37.7106 255.813 39.5438 255.114C41.3771 254.415 48.0847 254.229 49.2868 254.101C50.4888 253.973 52.0698 253.532 52.8264 253.785C53.0654 253.865 54.1258 253.554 55.4649 253.091C55.5048 253.896 56.5652 258.48 56.5652 258.48Z" fill="#EEA886"/>
<path d="M62.1802 257.714L77.2872 253.244L74.3006 252.331C74.3006 252.331 62.2274 256.709 62.1802 257.714Z" fill="#787878"/>
<path d="M62.1802 257.714L69.2507 255.558L64.3482 258.405L62.1802 257.714Z" fill="#474747"/>
<path d="M57.3249 239.647L57.0063 239.462C57.1161 239.517 57.2225 239.579 57.3249 239.647Z" fill="#525252"/>
<path d="M53.8426 259.353C52.8308 259.67 44.7958 259.922 43.1513 260.238C41.5069 260.553 38.2179 261.061 36.8891 259.795C35.5602 258.53 37.7106 255.813 39.5438 255.114C41.3771 254.415 48.0847 254.229 49.2868 254.101C50.4888 253.973 52.0698 253.532 52.8264 253.785C52.8309 253.787 50.8029 256.887 53.8426 259.353Z" fill="#C5CDDB"/>
<path d="M48.8488 238.373L46.5215 225.13L76.6205 224.434L74.6781 237.473C74.6781 237.473 65.0708 240.99 61.8099 243.041C61.8129 243.034 53.5728 239.647 48.8488 238.373Z" fill="#D6D6D6"/>
<path d="M66.3512 200.252C66.3512 200.245 65.6137 199.89 65.6137 199.89C65.2539 199.084 65.5208 195.692 65.5208 195.692C65.5208 195.692 58.1701 193.822 58.3795 195.25C58.589 196.677 57.7468 200.003 57.7468 200.003L53.9756 201.876C53.9756 201.876 57.9931 212.665 62.6109 211.273C67.2287 209.88 68.969 201.487 68.969 201.487L66.3512 200.252Z" fill="#EEA886"/>
<path d="M58.4547 196.81C58.4547 196.81 59.667 198.37 61.723 198.37C63.074 198.37 64.0385 197.997 65.3851 196.685C65.3851 196.685 64.8084 199.173 61.7319 199.404C61.7319 199.404 59.4724 199.656 58.4547 196.81Z" fill="#A77860"/>
</svg>
