<svg width="333" height="238" viewBox="0 0 333 238" fill="none" xmlns="http://www.w3.org/2000/svg">
<path d="M96.4423 195.525H83.2041V199.793H96.4423V195.525Z" fill="#B8B8B8"/>
<g opacity="0.22">
<path opacity="0.22" d="M148.21 150.38C129.054 150.38 113.858 137.498 98.9858 124.885C87.7058 115.323 76.0053 105.548 62.4988 100.727C21.2748 86.0072 0.188201 112.884 0 113.14V104.964C0.220235 104.683 3.98426 99.798 14.8679 95.137C24.7745 90.8885 41.4003 87.5008 64.3288 95.4774C78.8563 100.531 90.9212 110.762 102.59 120.652C126.259 140.722 146.701 158.052 182.203 130.903C209.088 110.345 234.435 90.7523 259.373 83.5927C283.767 76.5932 309.195 81.7187 333 105.52L332.824 112.944C282.258 62.1577 239.208 94.3362 185.59 135.336C171.387 146.176 159.15 150.38 148.21 150.38Z" fill="url(#paint0_linear)"/>
</g>
<path opacity="0.32" d="M307.27 0H148.096C141.968 0 137 4.96777 137 11.0958V57.6897C137 63.8177 141.968 68.7856 148.096 68.7856H307.27C313.398 68.7856 318.366 63.8177 318.366 57.6897V11.0958C318.366 4.96777 313.398 0 307.27 0Z" fill="url(#paint1_linear)"/>
<path d="M216.32 18H153V23.566H216.32V18Z" fill="white"/>
<path d="M233 30H153V36H233V30Z" fill="white"/>
<path d="M246 42H153V48H246V42Z" fill="white"/>
<path d="M241 54H153V60H241V54Z" fill="white"/>
<path d="M296 33.5C296 36.9612 294.974 40.3446 293.051 43.2225C291.128 46.1003 288.395 48.3434 285.197 49.6679C281.999 50.9924 278.481 51.339 275.086 50.6637C271.691 49.9885 268.573 48.3218 266.126 45.8744C263.678 43.4269 262.012 40.3087 261.336 36.9141C260.661 33.5194 261.008 30.0007 262.332 26.803C263.657 23.6053 265.9 20.8722 268.778 18.9493C271.655 17.0264 275.039 16 278.5 16C283.141 16 287.593 17.8437 290.874 21.1256C294.156 24.4075 296 28.8587 296 33.5Z" fill="#1487E3"/>
<path d="M276.762 39.4902H276.731C276.615 39.4865 276.501 39.4592 276.397 39.4102C276.292 39.3612 276.198 39.2913 276.121 39.205L271.365 33.8024C271.214 33.6318 271.137 33.408 271.15 33.1804C271.164 32.9528 271.268 32.7399 271.438 32.5886C271.609 32.4373 271.832 32.36 272.06 32.3736C272.288 32.3873 272.501 32.4908 272.652 32.6614L276.808 37.3851L286.318 28.0774C286.481 27.9186 286.699 27.8306 286.926 27.8331C287.153 27.8355 287.37 27.928 287.529 28.0903C287.688 28.2525 287.776 28.4713 287.773 28.6984C287.771 28.9254 287.679 29.1423 287.516 29.3011L277.361 39.2392C277.202 39.3983 276.987 39.4885 276.762 39.4902Z" fill="white"/>
<g opacity="0.74">
<path opacity="0.74" d="M263.817 82H189.714C186.558 82 184 84.5583 184 87.7141V155.174C184 158.33 186.558 160.888 189.714 160.888H263.817C266.973 160.888 269.531 158.33 269.531 155.174V87.7141C269.531 84.5583 266.973 82 263.817 82Z" fill="url(#paint2_linear)"/>
</g>
<path d="M265.15 147.643H194.15V150.643H265.15V147.643Z" fill="white"/>
<path d="M249.15 138.643H194.15V141.643H249.15V138.643Z" fill="white"/>
<path d="M237.15 129.643H194.15V132.643H237.15V129.643Z" fill="white"/>
<path d="M219.51 147.643H194.143V150.643H219.51V147.643Z" fill="#5BB1F7"/>
<path d="M214.15 138.643H194.15V141.643H214.15V138.643Z" fill="#5BB1F7"/>
<path d="M210.15 129.643H194.15V132.643H210.15V129.643Z" fill="#5BB1F7"/>
<path d="M236.15 105.143L219.15 95.6426V114.643L236.15 105.143Z" fill="#1487E3"/>
<path d="M171.435 220.727C171.435 220.727 177.486 223.454 180.189 224.403C182.892 225.352 192.782 224.287 193.883 225.136C194.985 225.985 195.029 229.192 193.435 229.753C191.841 230.314 180.021 233.233 175.908 232.832C171.796 232.432 164.536 235.199 162.802 234.834C161.068 234.47 160.92 224.756 161.289 222.517C161.657 220.279 171.435 220.727 171.435 220.727Z" fill="#484E7D"/>
<path d="M170.046 216.815L171.435 220.711C171.435 220.711 164.148 223.31 161.289 222.485L160.332 218.513L170.046 216.815Z" fill="#EEA886"/>
<path d="M155.133 224.191C155.133 224.191 160.835 227.671 163.414 228.956C165.993 230.242 175.936 230.438 176.933 231.419C177.93 232.4 177.621 235.595 175.98 235.952C174.338 236.308 162.281 237.702 158.237 236.753C154.192 235.804 146.68 237.654 145.002 237.077C143.325 236.5 144.246 226.83 144.858 224.664C145.471 222.497 155.133 224.191 155.133 224.191Z" fill="#5B639E"/>
<path d="M154.281 220.143L155.134 224.191C155.134 224.191 147.606 225.845 144.859 224.664L144.347 220.599L154.281 220.143Z" fill="#EEA886"/>
<path d="M97.1032 147.261C97.1032 147.261 123.111 147.489 126.302 147.942C129.758 148.43 143.293 148.867 144.926 151.345C161.42 176.38 172.188 217.368 172.188 217.368L159.154 219.935C159.154 219.935 146.544 195.509 141.262 182.811C136.521 171.415 132.453 168.488 122.51 168.736C112.568 168.984 80.7137 166.794 62.3501 164.519L97.1032 147.261Z" fill="#292C47"/>
<path d="M94.3526 86.9646C94.3526 86.9646 102.069 103.574 101.444 109.745C100.819 115.916 94.1804 133.018 93.7119 136.454C93.2434 139.889 96.603 146.684 96.603 146.684L61.8498 162.758C61.0149 155.486 61.0149 148.142 61.8498 140.87C63.2513 129.158 64.2804 116.568 65.8261 109.945C71.0957 87.357 85.0466 77.995 85.0466 77.995L94.3526 86.9646Z" fill="#EB4747"/>
<path d="M96.6032 146.684C96.6032 146.684 122.631 146.912 125.802 147.365C129.258 147.853 143.101 148.09 144.426 150.769C153.876 169.857 155.995 220.819 155.995 220.819L143.834 222.293C143.834 222.293 137.859 196.433 135.985 184.12C134.111 171.807 131.769 170.013 121.81 170.265C111.852 170.518 72.8659 180.468 61.8501 162.757L96.6032 146.684Z" fill="#323657"/>
<path d="M74.1391 102.653C74.2152 99.45 76.0852 85.5551 83.9135 86.5041C91.7419 87.4532 90.841 96.8472 90.1162 103.935C89.3554 111.347 85.5072 129.526 86.7326 130.459C87.9579 131.392 97.2478 134.187 99.2419 134.584C101.236 134.98 113.285 137.939 114.274 138.215C115.263 138.492 113.301 143.169 113.301 143.169C113.301 143.169 79.9493 142.192 74.3713 139.565C68.7934 136.938 74.1391 102.653 74.1391 102.653Z" fill="#EEA886"/>
<path d="M114.274 138.215C115.483 138.526 116.709 138.767 117.946 138.936C119.148 139.028 124.798 136.786 126.555 137.11C128.313 137.434 139.633 142.896 140.138 143.281C140.642 143.665 139.838 144.414 139.838 144.414L113.301 143.457L114.274 138.215Z" fill="#EEA886"/>
<path d="M147.546 144.539L103.419 142.759L103.256 146.8L147.383 148.58L147.546 144.539Z" fill="#807066"/>
<path d="M158.466 105.623L143.543 147.189L147.349 148.555L162.273 106.99L158.466 105.623Z" fill="#807066"/>
<path d="M114.59 60.8044C114.59 60.8044 115.423 67.6117 113.573 67.912C112.048 68.1483 112.584 74.7193 112.584 75.7724C112.584 76.8256 109.721 76.4491 108.94 76.8135C108.159 77.1779 103.735 83.6849 101.488 83.0602C99.2419 82.4355 90.901 75.2879 89.3393 71.5159C87.7776 67.7438 90.4565 54.5297 94.2606 50.0009C98.0646 45.472 113.081 48.8677 114.59 60.8044Z" fill="#EEA886"/>
<path d="M97.188 78.2309C97.188 78.2309 96.9637 78.8275 96.6314 79.7565C96.3871 80.4412 96.0868 81.3022 95.7704 82.2392C94.9215 84.7779 93.9925 87.8451 93.9205 89.3627C93.7883 92.1657 85.043 78.0106 85.043 78.0106C87.1804 71.9709 88.8878 65.7876 90.1524 59.5069C92.1105 49.5322 97.188 78.2309 97.188 78.2309Z" fill="#EEA886"/>
<path d="M114.718 62.25C114.718 62.25 120.2 57.3808 116.32 50.6656C112.44 43.9504 98.9694 47.8026 97.6801 47.6464C96.3907 47.4902 89.6715 45.356 88.3581 58.3178C87.0447 71.2797 87.8776 69.3376 87.8776 69.3376C87.8776 69.3376 91.1811 63.7717 93.5396 64.6726C95.8982 65.5736 100.023 65.998 100.023 65.998C100.023 65.998 100.099 59.9476 103.498 60.4161C106.898 60.8846 112.035 59.8675 114.718 62.25Z" fill="#434343"/>
<path d="M73.5459 103.258L91.425 103.903C91.425 103.903 94.2 85.2988 83.925 85.6592C73.65 86.0196 73.5459 103.258 73.5459 103.258Z" fill="#EB4747"/>
<path d="M97.9323 61.6975C97.9323 60.8646 98.2727 57.4089 94.8891 58.1897C91.5055 58.9705 93.5436 66.5266 93.9801 66.7869C94.4166 67.0472 97.8322 68.6849 97.9323 61.6975Z" fill="#EEA886"/>
<path d="M120.72 169.561H45.2998V236.012H120.72V169.561Z" fill="#1487E3"/>
<path d="M85.043 78.0109C85.043 78.0109 100.387 105.733 99.9869 101.804C99.6746 98.733 93.0315 83.8932 93.0315 83.8932L85.043 78.0109Z" fill="#EEA886"/>
<path d="M96.6311 79.7569C96.3868 80.4417 96.0865 81.3026 95.7702 82.2396C93.4647 79.2813 91.4958 76.0755 89.8999 72.6814C91.1613 74.9799 96.6311 79.7569 96.6311 79.7569Z" fill="#A77860"/>
<defs>
<linearGradient id="paint0_linear" x1="47762.2" y1="102300" x2="324688" y2="102300" gradientUnits="userSpaceOnUse">
<stop stop-color="#40D5E6"/>
<stop offset="1" stop-color="#5577FF"/>
</linearGradient>
<linearGradient id="paint1_linear" x1="60575.4" y1="88348.9" x2="142721" y2="88348.9" gradientUnits="userSpaceOnUse">
<stop stop-color="#40A9E6"/>
<stop offset="1" stop-color="#1FA9FF"/>
</linearGradient>
<linearGradient id="paint2_linear" x1="226.766" y1="166.418" x2="226.766" y2="32.9195" gradientUnits="userSpaceOnUse">
<stop stop-color="#8EC3F9"/>
<stop offset="1" stop-color="#B8EBFF"/>
</linearGradient>
</defs>
</svg>
