<svg width="197" height="252" viewBox="0 0 197 252" fill="none" xmlns="http://www.w3.org/2000/svg">
<path d="M101.376 117.64C102.874 114.85 103.973 111.864 104.641 108.769L111.098 107.197L110.811 99.9652L110.524 92.7367L103.948 91.682C103.042 88.6485 101.714 85.7575 100.002 83.0939L103.468 77.4079L98.1513 72.5004L92.8456 67.5785L87.4645 71.478C84.673 69.9802 81.6857 68.8802 78.5894 68.2099L77.0182 61.7527L69.7896 62.0397L62.5576 62.3231L61.5029 68.9023C58.4699 69.81 55.579 71.1383 52.9147 72.8484L47.2324 69.383L42.3213 74.6994L37.4138 80.0123L41.3132 85.3934C39.8155 88.1849 38.7154 91.1722 38.0451 94.2685L31.5879 95.8397L31.8713 103.068L32.1583 110.297L38.734 111.355C39.6432 114.387 40.9714 117.278 42.6801 119.943L39.2182 125.626L44.5311 130.537L49.8476 135.444L55.2286 131.545C58.0189 133.042 61.005 134.142 64.1001 134.813L65.6714 141.27L72.9035 140.983L80.132 140.7L81.1867 134.12C84.22 133.213 87.1109 131.885 89.7748 130.174L95.4572 133.636L100.368 128.323L105.279 123.007L101.376 117.64ZM54.1309 120.151C50.4479 116.748 47.8568 112.329 46.6854 107.452C45.514 102.576 45.8149 97.4624 47.5499 92.7573C49.2849 88.0522 52.3761 83.9673 56.4327 81.019C60.4893 78.0707 65.3291 76.3916 70.34 76.1939C75.3509 75.9963 80.3079 77.289 84.5841 79.9085C88.8604 82.528 92.2638 86.3568 94.3641 90.9106C96.4643 95.4645 97.167 100.539 96.3834 105.492C95.5997 110.445 93.3648 115.055 89.9613 118.738C87.7015 121.183 84.982 123.16 81.9582 124.555C78.9343 125.949 75.6655 126.734 72.3382 126.865C69.0109 126.996 65.6904 126.47 62.5663 125.318C59.4423 124.165 56.5759 122.408 54.1309 120.148V120.151Z" fill="#EAEAEB"/>
<path d="M43.8908 164.401C44.5784 163.123 45.082 161.753 45.3867 160.333L48.357 159.616L48.2243 156.301L48.0951 152.986L45.0782 152.506C44.6679 151.113 44.0641 149.785 43.2845 148.56L44.8701 145.955L42.4343 143.702L39.9984 141.453L37.5268 143.247C36.2479 142.559 34.8784 142.056 33.4587 141.751L32.7412 138.784L29.4265 138.913L26.1118 139.046L25.6276 142.059C24.2333 142.476 22.9048 143.087 21.6815 143.875L19.0771 142.285L16.8242 144.721L14.5749 147.157L16.3686 149.629C15.681 150.907 15.1774 152.277 14.8727 153.697L11.9023 154.414L12.035 157.729L12.1642 161.044L15.1811 161.528C15.5903 162.921 16.1942 164.25 16.9748 165.474L15.3892 168.082L17.8251 170.331L20.2608 172.584L22.7325 170.79C24.0121 171.477 25.3814 171.982 26.8006 172.29L27.5181 175.257L30.8328 175.124L34.1475 174.995L34.6318 171.978C36.025 171.569 37.3535 170.965 38.5779 170.184L41.1823 171.773L43.4352 169.334L45.688 166.898L43.8908 164.401ZM22.2339 165.553C20.5452 163.993 19.357 161.967 18.8197 159.732C18.2823 157.497 18.4198 155.152 19.2148 152.995C20.0099 150.838 21.4267 148.965 23.2862 147.614C25.1457 146.262 27.3643 145.492 29.6614 145.401C31.9585 145.31 34.231 145.903 36.1914 147.104C38.1519 148.304 39.7122 150.059 40.6751 152.147C41.638 154.235 41.9601 156.561 41.6008 158.831C41.2416 161.102 40.217 163.215 38.6568 164.904C37.6212 166.025 36.375 166.931 34.9891 167.571C33.6032 168.21 32.105 168.57 30.5799 168.631C29.0548 168.691 27.5327 168.45 26.1007 167.922C24.6687 167.394 23.3547 166.589 22.2339 165.553Z" fill="#EAEAEB"/>
<g style="mix-blend-mode:hard-light">
<g style="mix-blend-mode:hard-light">
<path d="M144.294 0H0V95.438H144.294V0Z" fill="#EBEBEB"/>
</g>
</g>
<g style="mix-blend-mode:hard-light">
<path d="M179.831 0H155.745V95.438H179.831V0Z" fill="#EBEBEB"/>
</g>
<path d="M56.6982 14.457H27.6909V17.4273H56.6982V14.457Z" fill="#E0E0E0"/>
<path d="M85.7593 36.8243H64.8164V39.7947H85.7593V36.8243Z" fill="#E0E0E0"/>
<path d="M102.921 36.8243H89.0239V39.7947H102.921V36.8243Z" fill="#40D5E6"/>
<path d="M139.221 36.8243H105.665V39.7947H139.221V36.8243Z" fill="#E0E0E0"/>
<path d="M49.5837 81.7991H28.02V84.7694H49.5837V81.7991Z" fill="#E0E0E0"/>
<path d="M82.9328 14.457H62.3413V17.4273H82.9328V14.457Z" fill="#78C2FF"/>
<path d="M82.9328 48.006H62.3413V50.9763H82.9328V48.006Z" fill="#40D5E6"/>
<path d="M60.8447 59.1877H52.0449V62.1581H60.8447V59.1877Z" fill="#E0E0E0"/>
<path d="M63.0084 70.5347H43.2456V73.505H63.0084V70.5347Z" fill="#78C2FF"/>
<path d="M93.2784 70.5347H65.9966V73.505H93.2784V70.5347Z" fill="#40D5E6"/>
<path d="M48.6114 59.2704H28.02V62.2407H48.6114V59.2704Z" fill="#40D5E6"/>
<path d="M40.2386 70.5347H28.02V73.505H40.2386V70.5347Z" fill="#40D5E6"/>
<path d="M76.5173 59.2704H64.9912V62.2407H76.5173V59.2704Z" fill="#FF8761"/>
<path d="M48.5299 36.8243H27.9385V39.7947H48.5299V36.8243Z" fill="#78C2FF"/>
<path d="M57.2938 48.006H27.9385V50.9763H57.2938V48.006Z" fill="#78C2FF"/>
<path d="M114.712 14.457H88.478V17.4273H114.712V14.457Z" fill="#40D5E6"/>
<path d="M184.76 36.8243H158.525V39.7947H184.76V36.8243Z" fill="#40D5E6"/>
<path d="M150.601 48.006H124.367V50.9763H150.601V48.006Z" fill="#40D5E6"/>
<path d="M160.355 14.457H134.121V17.4273H160.355V14.457Z" fill="#FF8761"/>
<path d="M119.563 48.006H104.181V50.9763H119.563V48.006Z" fill="#FF8761"/>
<path d="M129.17 14.457H119.566V17.4273H129.17V14.457Z" fill="#E0E0E0"/>
<path d="M98.0814 48.006H88.478V50.9763H98.0814V48.006Z" fill="#E0E0E0"/>
<path d="M42.7147 25.6388H27.6909V28.6091H42.7147V25.6388Z" fill="#40D5E6"/>
<path d="M79.6392 81.8812H67.7759V84.8516H79.6392V81.8812Z" fill="#40D5E6"/>
<path d="M51.2525 25.6388H46.4023V28.6091H51.2525V25.6388Z" fill="#40D5E6"/>
<path d="M186.086 25.6388H145.99V28.6091H186.086V25.6388Z" fill="#E0E0E0"/>
<path d="M142.289 25.6388H129.17V28.6091H142.289V25.6388Z" fill="#40D5E6"/>
<path d="M155.404 36.8243H142.285V39.7947H155.404V36.8243Z" fill="#FF8761"/>
<path d="M125.694 25.6388H97.7842V28.6091H125.694V25.6388Z" fill="#40D5E6"/>
<path d="M93.8236 25.6388H84.2202V28.6091H93.8236V25.6388Z" fill="#78C2FF"/>
<path d="M61.5013 36.8243H51.8979V39.7947H61.5013V36.8243Z" fill="#FF8761"/>
<path d="M63.4134 81.8812H53.8101V84.8516H63.4134V81.8812Z" fill="#FF8761"/>
<path d="M80.5576 25.6388H63.8262V28.6091H80.5576V25.6388Z" fill="#40D5E6"/>
<path d="M196.999 88.8087H188.501V87.6249H196.009V78.678H196.999V88.8087Z" fill="#40D5E6"/>
<path d="M19.3895 88.8087H10.8911V78.678H11.8848V87.6249H19.3895V88.8087Z" fill="#40D5E6"/>
<path d="M11.8859 20.6418H10.8994V10.5039H19.3871V11.6841H11.8859V20.6418Z" fill="#40D5E6"/>
<path d="M196.999 20.6383H196.009V11.6878H188.501V10.5076H196.999V20.6383Z" fill="#40D5E6"/>
<path d="M197 35.7766H196.01V63.5427H197V35.7766Z" fill="#40D5E6"/>
<path d="M11.8846 35.7766H10.8945V63.5427H11.8846V35.7766Z" fill="#40D5E6"/>
<path d="M95.8781 20.2256C95.8781 20.2256 102.877 19.5081 105.399 26.2523C107.921 32.9966 110.296 35.2207 110.59 38.7722C111.795 53.1216 118.5 49.893 116.613 58.1654C114.726 66.4379 113.424 67.6934 113.424 67.6934L97.3883 64.551L81.1484 64.6047C81.1484 64.6047 87.5016 61.4299 86.0881 54.6714C84.6747 47.9128 81.1484 36.835 83.1393 29.2908C85.1303 21.7466 91.6952 20.8103 95.8781 20.2256Z" fill="#464240"/>
<path d="M91.4536 242.128C91.4536 242.128 86.4313 249.031 87.1488 250.143C87.8662 251.255 93.3477 251.416 96.6839 250.143C100.02 248.869 100.103 240.643 101.613 237.11C102.244 235.628 100.896 231.262 98.9906 230.943C97.0857 230.624 94.858 231.625 94.858 231.625C94.858 231.625 96.7988 236.654 91.4536 242.128Z" fill="#51578C"/>
<path d="M94.8494 231.625C94.6165 233.499 94.2715 235.357 93.8162 237.189C93.1812 239.492 89.7625 244.722 89.9203 245.375C90.0782 246.028 94.3723 246.588 96.1193 244.948C97.8663 243.309 99.2187 238.563 99.3801 235.689C99.4956 234.096 99.3613 232.495 98.982 230.943C98.982 230.943 96.5175 229.878 94.8494 231.625Z" fill="#EEA886"/>
<path d="M101.604 237.11V244.46H100.65V238.778L101.604 237.11Z" fill="#51578C"/>
<path d="M104.607 242.128C104.607 242.128 99.5851 249.031 100.303 250.143C101.02 251.255 106.502 251.416 109.838 250.143C113.174 248.869 113.257 240.643 114.767 237.11C115.398 235.628 114.049 231.262 112.144 230.943C110.24 230.624 108.012 231.625 108.012 231.625C108.012 231.625 109.949 236.654 104.607 242.128Z" fill="#51578C"/>
<path d="M108.005 231.625C107.772 233.499 107.427 235.357 106.972 237.189C106.333 239.492 102.918 244.722 103.076 245.375C103.233 246.028 107.528 246.588 109.275 244.948C111.022 243.309 112.374 238.563 112.532 235.689C112.65 234.096 112.516 232.495 112.137 230.943C112.137 230.943 109.673 229.878 108.005 231.625Z" fill="#EEA886"/>
<path d="M114.76 237.11V244.46H113.806V238.778L114.76 237.11Z" fill="#51578C"/>
<path d="M82.2121 117.202C82.2121 117.202 78.4095 138.153 77.3835 143.39C76.3575 148.628 73.4769 174.015 73.1683 178.331C72.8598 182.647 82.5456 203.407 83.1519 204.838C93.2826 228.812 94.4557 234.236 94.4557 234.236C94.4557 234.236 97.7812 236.321 99.3165 233.831C99.7865 233.074 93.0817 205.588 91.9768 197.957C90.9473 190.865 88.2747 179.913 88.9957 177.423C89.7168 174.934 96.2924 140.631 97.5265 139.193C98.7605 137.754 100.608 140.014 101.329 143.2C102.05 146.386 103.589 173.929 104.515 177.423C105.44 180.917 104.719 192.734 105.232 198.696C105.745 204.659 107.883 232.479 107.883 232.479C107.883 232.479 112.023 233.218 112.436 232.557C112.848 231.897 116.432 201.656 116.532 194.564C116.633 187.472 116.747 177.703 116.945 174.629C118.85 145.241 122.444 141.399 116.159 120.248C100.78 68.5113 82.2121 117.202 82.2121 117.202Z" fill="#EEA886"/>
<path d="M82.2123 117.202C82.2123 117.202 78.4097 138.153 77.3837 143.39C76.3578 148.628 73.4771 174.015 73.1686 178.331C72.8601 182.647 82.2122 203.407 82.4203 204.949C82.6284 206.492 90.3125 228.554 90.3125 228.554C90.3125 228.554 98.0899 228.421 100.21 226.402C100.637 225.996 93.0676 205.595 91.9591 197.957C90.9296 190.865 88.257 179.913 88.978 177.423C89.6991 174.934 96.2747 140.631 97.5088 139.193C98.7428 137.754 100.59 140.014 101.311 143.2C102.032 146.386 103.571 173.929 104.497 177.423C105.422 180.917 104.701 192.734 105.214 198.696C105.727 204.659 104.644 225.835 104.644 225.835C104.644 225.835 114.832 226.369 115.245 225.706C115.657 225.042 116.414 201.67 116.515 194.564C116.615 187.457 116.73 177.703 116.927 174.629C118.832 145.241 122.427 141.399 116.141 120.248C100.78 68.5113 82.2123 117.202 82.2123 117.202Z" fill="#40D5E6"/>
<path d="M117.69 124.259C118.282 124.019 113.522 108.288 112.582 103.585C111.732 99.3447 108.829 95.4596 111.663 88.2347C113.281 84.0985 113.174 79.2089 113.174 79.2089C113.174 79.2089 117.507 88.7621 117.916 91.2302C118.325 93.6983 102.946 89.2105 102.735 89.5513C102.329 90.2006 101.877 94.3619 101.877 95.8004C101.877 96.9914 124.208 102.258 126.849 97.5941C127.599 96.2704 122.752 70.8934 119.62 67.5141C114.483 61.9645 100.987 57.2364 100.987 57.2364C100.987 57.2364 97.2854 55.249 90.7779 57.3045C84.2704 59.3601 75.155 65.6631 73.5801 67.3061C72.0053 68.9491 65.688 93.7305 65.1499 96.9412C64.6333 99.9582 64.8378 106.308 71.7291 105.497L90.3295 101.235L89.1744 95.5673L75.2304 96.6686C72.3856 97.1564 73.7523 94.6596 74.1147 93.2678C74.477 91.8759 77.9675 79.2986 77.9675 79.2986C77.7666 82.7927 80.3997 94.265 81.7701 98.2362C83.1405 102.207 80.1127 123.477 79.9082 125.805C79.9082 125.794 91.1044 134.989 117.69 124.259Z" fill="#494F80"/>
<path d="M104.022 58.388C104.022 58.388 99.4342 67.8587 95.6029 70.6353C95.6029 70.6353 88.7044 60.2965 89.056 57.9109C89.056 57.9109 96.6971 54.5209 104.022 58.388Z" fill="#EEA886"/>
<path d="M104.187 90.319C104.187 90.319 102.064 89.4616 101.497 88.6867C100.93 87.9118 99.0502 87.4562 97.6547 87.8724C96.2592 88.2885 97.0304 94.2794 97.0304 94.2794L104.392 95.2336L104.187 90.319Z" fill="#EEA886"/>
<path d="M90.8633 94.8928C90.8633 94.8928 91.5808 91.0221 91.4014 90.3082C91.222 89.5943 92.6606 88.8733 92.8579 90.6418C93.0552 92.4104 93.1628 93.5332 93.1628 93.5332L90.8633 94.8928Z" fill="#EEA886"/>
<path d="M93.924 97.5834L99.2835 97.3646C99.6135 97.3508 99.9258 97.2111 100.156 96.9743C100.386 96.7374 100.517 96.4213 100.521 96.091L100.665 84.3568C100.667 84.1825 100.634 84.0095 100.568 83.8483C100.502 83.6871 100.403 83.541 100.279 83.4189C100.154 83.2968 100.007 83.2012 99.844 83.138C99.6816 83.0748 99.508 83.0452 99.3338 83.051L92.916 83.2627C92.7419 83.2685 92.5708 83.3094 92.4129 83.3831C92.255 83.4567 92.1137 83.5615 91.9974 83.6912C91.8811 83.8209 91.7923 83.9728 91.7362 84.1378C91.6802 84.3027 91.658 84.4773 91.6712 84.651L92.586 96.3924C92.6117 96.7254 92.7654 97.0355 93.0149 97.2576C93.2644 97.4797 93.5903 97.5965 93.924 97.5834Z" fill="#EBEBEB"/>
<path d="M90.7453 95.2015C90.7453 95.2015 90.6448 94.1002 92.7578 93.0957C95.5631 91.7576 99.3047 90.398 99.9325 90.746C100.854 91.2518 100.381 91.9513 98.6088 92.5396L96.2519 93.3145C96.2519 93.3145 99.7173 92.9809 100.496 93.397C101.274 93.8132 101.317 94.771 100.75 94.9288C100.121 95.0554 99.483 95.1393 98.8419 95.1799C98.8419 95.1799 100.313 95.2373 100.46 95.8257C100.567 96.2633 100.621 96.9019 99.2294 97.1494C99.2294 97.1494 100.173 98.1969 98.7558 98.8677C97.3388 99.5386 94.7775 100.152 93.4896 100.364C90.8134 100.805 84.7651 100.478 84.7651 100.478L87.2476 96.2741C88.0315 96.332 88.8195 96.2592 89.5794 96.0589C90.8852 95.6248 90.7453 95.2015 90.7453 95.2015Z" fill="#EEA886"/>
<path d="M89.1743 95.5566L90.3294 101.228L78.4768 103.94L78.0176 96.4391L89.1743 95.5566Z" fill="#494F80"/>
<path d="M102.723 89.5441C102.723 89.5441 101.748 91.6391 101.866 95.7933C101.866 95.7933 109.22 98.4802 114.927 99.1044V91.8902L102.723 89.5441Z" fill="#494F80"/>
<path d="M90.3298 101.224L82.0215 105.845C82.0789 104.883 82.1184 103.962 82.1399 103.104L90.3298 101.224Z" fill="#21243B"/>
<path d="M112.169 101.841C105.503 99.1904 102.842 96.8192 102.103 96.0443C102.023 95.9648 101.947 95.881 101.876 95.7932L111.344 98.5555C111.584 99.6998 111.892 100.776 112.169 101.841Z" fill="#21243B"/>
<path d="M96.8014 24.1718C96.8014 24.1718 106.071 25.5098 104.715 39.192C103.359 52.8742 95.1906 51.7944 94.631 51.7944C94.0714 51.7944 86.4231 52.0814 85.7631 35.3858C85.7631 35.3823 85.451 23.0346 96.8014 24.1718Z" fill="#EEA886"/>
<path d="M100.93 49.3656C100.93 49.3656 100.356 56.4829 101.727 58.6138C103.097 60.7447 100.557 63.6361 95.316 62.6532C90.0749 61.6702 90.3798 58.7071 90.3798 58.7071C90.3798 58.7071 91.847 54.3126 91.4201 50.8149C90.9932 47.3172 100.93 49.3656 100.93 49.3656Z" fill="#EEA886"/>
<path d="M95.7429 29.1473C95.7429 29.1473 100.073 33.6997 102.085 36.0027C104.098 38.3058 104.327 42.7613 104.327 42.7613C104.327 42.7613 107.717 38.6251 106.3 33.7929C104.883 28.9608 101.529 19.5942 93.0272 22.4748C84.5252 25.3555 84.2238 38.0368 85.2211 44.3254C85.2355 44.3362 89.0453 30.4567 95.7429 29.1473Z" fill="#464240"/>
<path d="M92.0923 51.1736C93.3603 51.6974 94.7406 51.8902 96.1035 51.7339C97.4665 51.5777 98.7674 51.0775 99.884 50.2804C99.4841 50.9811 98.9212 51.5752 98.2431 52.0123C97.5649 52.4494 96.7914 52.7167 95.9881 52.7915C93.1577 53.1144 92.0923 51.1736 92.0923 51.1736Z" fill="#A77860"/>
<path d="M90.7432 53.6526C90.7432 53.6526 77.9937 64.9994 81.3013 72.0808C84.1281 78.1219 94.144 74.4162 92.4902 68.0845C90.8364 61.7528 90.7432 53.6526 90.7432 53.6526Z" fill="#464240"/>
<path d="M94.2182 85.5155C94.2182 85.6738 94.1712 85.8284 94.0833 85.96C93.9954 86.0915 93.8705 86.1941 93.7243 86.2547C93.5781 86.3152 93.4173 86.331 93.2621 86.3002C93.1069 86.2693 92.9644 86.1931 92.8525 86.0812C92.7406 85.9694 92.6644 85.8268 92.6335 85.6716C92.6027 85.5164 92.6185 85.3556 92.6791 85.2094C92.7396 85.0632 92.8421 84.9383 92.9737 84.8504C93.1053 84.7625 93.26 84.7156 93.4182 84.7156C93.6303 84.7156 93.8338 84.7998 93.9839 84.9499C94.1339 85.0999 94.2182 85.3034 94.2182 85.5155Z" fill="#48484D"/>
<path d="M137.429 110.139H160.622V108.514H137.429V110.139Z" fill="url(#paint0_linear)"/>
<path d="M137.429 118.412H160.622V111.578H137.429V118.412Z" fill="url(#paint1_linear)"/>
<path d="M126.534 121.73H140.216V120.707H126.534V121.73Z" fill="url(#paint2_linear)"/>
<path d="M126.534 124.941H140.216V122.175H126.534V124.941Z" fill="url(#paint3_linear)"/>
<path d="M164.43 118.899H165.452V99.75H164.43V118.899Z" fill="url(#paint4_linear)"/>
<defs>
<linearGradient id="paint0_linear" x1="70216.7" y1="2386.26" x2="70208.9" y2="2661.02" gradientUnits="userSpaceOnUse">
<stop stop-color="#40D5E6"/>
<stop offset="1" stop-color="#5577FF"/>
</linearGradient>
<linearGradient id="paint1_linear" x1="70344" y1="9705.25" x2="70208.1" y2="10845.5" gradientUnits="userSpaceOnUse">
<stop stop-color="#40D5E6"/>
<stop offset="1" stop-color="#5577FF"/>
</linearGradient>
<linearGradient id="paint2_linear" x1="41114" y1="1542.97" x2="41108.7" y2="1715.81" gradientUnits="userSpaceOnUse">
<stop stop-color="#40D5E6"/>
<stop offset="1" stop-color="#5577FF"/>
</linearGradient>
<linearGradient id="paint3_linear" x1="41145" y1="3972.4" x2="41107" y2="4437.29" gradientUnits="userSpaceOnUse">
<stop stop-color="#40D5E6"/>
<stop offset="1" stop-color="#5577FF"/>
</linearGradient>
<linearGradient id="paint4_linear" x1="3292.86" y1="27234.9" x2="2872.22" y2="27290.4" gradientUnits="userSpaceOnUse">
<stop stop-color="#40D5E6"/>
<stop offset="1" stop-color="#5577FF"/>
</linearGradient>
</defs>
</svg>
