<svg width="530" height="500" viewBox="0 0 530 500" fill="none" xmlns="http://www.w3.org/2000/svg">
<g style="mix-blend-mode:hard-light">
<path d="M408.012 82H156.988C150.919 82 146 86.0772 146 91.1068V276.893C146 281.923 150.919 286 156.988 286H408.012C414.081 286 419 281.923 419 276.893V91.1068C419 86.0772 414.081 82 408.012 82Z" fill="#E8E8E8"/>
</g>
<rect width="79" height="12" transform="translate(243 96)" fill="white" fill-opacity="0.01"/>
<path d="M257.793 97.6218H258.862V103.19C258.862 104.659 258.226 105.684 256.751 105.684C256.196 105.684 255.763 105.587 255.465 105.476V104.409C255.79 104.548 256.182 104.617 256.575 104.617C257.482 104.617 257.793 104.063 257.793 103.26V97.6218Z" fill="#253858"/>
<path d="M260.811 97.1923C261.231 97.1923 261.528 97.4555 261.528 97.9265C261.528 98.3836 261.231 98.6607 260.811 98.6607C260.392 98.6607 260.094 98.3975 260.094 97.9265C260.094 97.4555 260.392 97.1923 260.811 97.1923ZM260.297 99.5334H261.325V105.628H260.297V99.5334Z" fill="#253858"/>
<path d="M263.87 105.628H262.868V99.5334H263.87V100.6C264.222 99.8797 264.817 99.3671 265.981 99.4364V100.461C264.668 100.323 263.87 100.725 263.87 102.027V105.628Z" fill="#253858"/>
<path d="M270.772 104.534C270.393 105.337 269.676 105.753 268.756 105.753C267.172 105.753 266.374 104.382 266.374 102.581C266.374 100.863 267.213 99.4087 268.878 99.4087C269.744 99.4087 270.421 99.8104 270.772 100.6V99.5334H271.801V105.628H270.772V104.534ZM269.026 104.77C269.947 104.77 270.759 104.174 270.759 102.816V102.332C270.759 100.974 270.014 100.378 269.135 100.378C267.984 100.378 267.389 101.154 267.389 102.567C267.402 104.049 267.971 104.77 269.026 104.77Z" fill="#253858"/>
<path d="M277.864 105.753C276.349 105.753 275.645 105.448 275.036 105.13V104.008C275.767 104.396 276.876 104.673 277.919 104.673C279.096 104.673 279.543 104.202 279.543 103.495C279.543 102.789 279.11 102.415 277.621 102.041C275.861 101.597 275.076 100.974 275.076 99.658C275.076 98.4113 276.01 97.4832 277.824 97.4832C278.961 97.4832 279.678 97.7603 280.219 98.065V99.1594C279.434 98.7022 278.582 98.5499 277.783 98.5499C276.755 98.5499 276.146 98.91 276.146 99.6442C276.146 100.309 276.646 100.628 278.027 100.988C279.678 101.417 280.612 101.958 280.612 103.398C280.612 104.811 279.8 105.753 277.864 105.753Z" fill="#253858"/>
<path d="M281.519 102.567C281.519 100.739 282.561 99.4087 284.347 99.4087C286.12 99.4087 287.163 100.739 287.163 102.567C287.163 104.396 286.12 105.753 284.347 105.753C282.561 105.753 281.519 104.396 281.519 102.567ZM282.52 102.567C282.52 103.731 283.075 104.77 284.361 104.77C285.62 104.77 286.175 103.717 286.175 102.567C286.175 101.417 285.633 100.378 284.361 100.378C283.075 100.392 282.52 101.417 282.52 102.567Z" fill="#253858"/>
<path d="M291.318 99.5334V100.503H289.775V105.628H288.773V100.503H287.799V99.5334H288.76V98.8685C288.76 97.7326 289.382 96.9707 290.654 96.9707C290.966 96.9707 291.169 97.0261 291.345 97.0677V98.0373C291.169 97.9958 290.939 97.9819 290.695 97.9819C290.059 97.9819 289.748 98.3559 289.748 98.91V99.5334H291.318Z" fill="#253858"/>
<path d="M294.769 104.645C295.012 104.645 295.229 104.589 295.418 104.562V105.573C295.243 105.628 295.04 105.67 294.728 105.67C293.456 105.67 292.833 104.908 292.833 103.772V100.503H291.859V99.5334H292.82V98.2451H293.821V99.5334H295.405V100.503H293.821V103.731C293.835 104.271 294.133 104.645 294.769 104.645Z" fill="#253858"/>
<path d="M302.348 105.628L301.319 102.678L300.778 100.794L300.237 102.678L299.208 105.628H297.895L295.703 99.5334H296.84L298.558 104.7L300.291 99.5334H301.265L302.998 104.7L304.717 99.5334H305.854L303.661 105.628H302.348Z" fill="#253858"/>
<path d="M310.523 104.534C310.144 105.337 309.427 105.753 308.506 105.753C306.923 105.753 306.124 104.382 306.124 102.581C306.124 100.863 306.963 99.4087 308.628 99.4087C309.494 99.4087 310.171 99.8104 310.523 100.6V99.5334H311.551V105.628H310.523V104.534ZM308.79 104.77C309.711 104.77 310.523 104.174 310.523 102.816V102.332C310.523 100.974 309.778 100.378 308.899 100.378C307.748 100.378 307.153 101.154 307.153 102.567C307.153 104.049 307.735 104.77 308.79 104.77Z" fill="#253858"/>
<path d="M314.096 105.628H313.094V99.5334H314.096V100.6C314.448 99.8797 315.043 99.3671 316.207 99.4364V100.461C314.894 100.323 314.096 100.725 314.096 102.027V105.628Z" fill="#253858"/>
<path d="M319.821 105.753C317.588 105.753 316.613 104.437 316.613 102.567C316.613 100.725 317.615 99.4087 319.428 99.4087C321.269 99.4087 322 100.711 322 102.567V103.038H317.655C317.804 104.077 318.454 104.742 319.862 104.742C320.552 104.742 321.134 104.603 321.675 104.409V105.379C321.174 105.656 320.43 105.753 319.821 105.753ZM317.642 102.138H320.958C320.904 101.002 320.403 100.365 319.374 100.365C318.292 100.365 317.75 101.085 317.642 102.138Z" fill="#253858"/>
<path d="M252.799 101.334L248.387 96.8183L247.954 96.375L244.638 99.7688L243.122 101.334C242.959 101.5 242.959 101.764 243.122 101.916L246.154 105.019L247.954 106.861L251.269 103.467L251.324 103.412L252.799 101.916C252.961 101.75 252.961 101.486 252.799 101.334ZM247.954 103.176L246.438 101.625L247.954 100.074L249.469 101.625L247.954 103.176Z" fill="#2684FF"/>
<path d="M247.954 100.074C246.966 99.0624 246.952 97.414 247.94 96.3889L244.638 99.7827L246.438 101.625L247.954 100.074Z" fill="url(#paint0_linear)"/>
<path d="M249.483 101.611L247.954 103.177C248.955 104.202 248.955 105.85 247.954 106.875L251.283 103.468L249.483 101.611Z" fill="url(#paint1_linear)"/>
<path d="M395.85 141.55H362.45V144.9H395.85V141.55Z" fill="#40D5E6"/>
<path d="M400.84 151.93H362.45V155.28H400.84V151.93Z" fill="#FFC05C"/>
<path d="M382.25 162.25H362.39V165.6H382.25V162.25Z" fill="#40D5E6"/>
<path d="M392.99 172.56H362.39V175.91H392.99V172.56Z" fill="#FFC05C"/>
<g opacity="0.73" filter="url(#filter0_d)">
<path d="M435.64 196.61H354.11C348.642 196.61 344.21 201.042 344.21 206.51V332.57C344.21 338.038 348.642 342.47 354.11 342.47H435.64C441.108 342.47 445.54 338.038 445.54 332.57V206.51C445.54 201.042 441.108 196.61 435.64 196.61Z" fill="white"/>
</g>
<path d="M413.801 286H354.199C353.537 286 353 286.487 353 287.089V288.911C353 289.513 353.537 290 354.199 290H413.801C414.463 290 415 289.513 415 288.911V287.089C415 286.487 414.463 286 413.801 286Z" fill="#D4DBE1"/>
<path d="M406.93 294H357.86C357.081 294 356.45 294.487 356.45 295.089V296.911C356.45 297.513 357.081 298 357.86 298H406.93C407.709 298 408.34 297.513 408.34 296.911V295.089C408.34 294.487 407.709 294 406.93 294Z" fill="#D4DBE1"/>
<path d="M406.93 310H357.86C357.081 310 356.45 310.487 356.45 311.089V312.911C356.45 313.513 357.081 314 357.86 314H406.93C407.709 314 408.34 313.513 408.34 312.911V311.089C408.34 310.487 407.709 310 406.93 310Z" fill="#D4DBE1"/>
<path d="M406.93 318H357.86C357.081 318 356.45 318.487 356.45 319.089V320.911C356.45 321.513 357.081 322 357.86 322H406.93C407.709 322 408.34 321.513 408.34 320.911V319.089C408.34 318.487 407.709 318 406.93 318Z" fill="#D4DBE1"/>
<path d="M416.68 302H357.86C357.081 302 356.45 302.487 356.45 303.089V304.911C356.45 305.513 357.081 306 357.86 306H416.68C417.459 306 418.09 305.513 418.09 304.911V303.089C418.09 302.487 417.459 302 416.68 302Z" fill="#D4DBE1"/>
<path d="M403.26 322.49H386.5C383.694 322.49 381.42 324.764 381.42 327.57V344.33C381.42 347.136 383.694 349.41 386.5 349.41H403.26C406.066 349.41 408.34 347.136 408.34 344.33V327.57C408.34 324.764 406.066 322.49 403.26 322.49Z" fill="white"/>
<path d="M396.15 330.59H393.6V341.3H396.15V330.59Z" fill="#C5CCD1"/>
<path d="M400.23 337.22V334.67H389.52V337.22H400.23Z" fill="#C5CCD1"/>
<g opacity="0.73" filter="url(#filter1_d)">
<path d="M255.707 216H107.293C101.608 216 97 220.794 97 226.708V366.292C97 372.206 101.608 377 107.293 377H255.707C261.392 377 266 372.206 266 366.292V226.708C266 220.794 261.392 216 255.707 216Z" fill="white"/>
</g>
<path d="M128.816 201H70.1561C69.5176 201 69 201.518 69 202.156V227.398C69 228.037 69.5176 228.554 70.1561 228.554H128.816C129.455 228.554 129.972 228.037 129.972 227.398V202.156C129.972 201.518 129.455 201 128.816 201Z" fill="#9EC8FF"/>
<path d="M127.372 208.241H71.6009C71.0851 208.241 70.667 208.659 70.667 209.175V226.329C70.667 226.844 71.0851 227.263 71.6009 227.263H127.372C127.887 227.263 128.306 226.844 128.306 226.329V209.175C128.306 208.659 127.887 208.241 127.372 208.241Z" fill="white"/>
<path d="M73.3838 203.029H72.0311C71.745 203.029 71.5132 203.261 71.5132 203.547V204.661C71.5132 204.947 71.745 205.179 72.0311 205.179H73.3838C73.6698 205.179 73.9017 204.947 73.9017 204.661V203.547C73.9017 203.261 73.6698 203.029 73.3838 203.029Z" fill="white"/>
<path d="M77.7263 203.029H76.3736C76.0876 203.029 75.8557 203.261 75.8557 203.547V204.661C75.8557 204.947 76.0876 205.179 76.3736 205.179H77.7263C78.0124 205.179 78.2442 204.947 78.2442 204.661V203.547C78.2442 203.261 78.0124 203.029 77.7263 203.029Z" fill="white"/>
<path d="M82.0706 203.029H80.7178C80.4318 203.029 80.2 203.261 80.2 203.547V204.661C80.2 204.947 80.4318 205.179 80.7178 205.179H82.0706C82.3566 205.179 82.5885 204.947 82.5885 204.661V203.547C82.5885 203.261 82.3566 203.029 82.0706 203.029Z" fill="white"/>
<path d="M125.96 212.409H95.472C95.2363 212.4 95.0134 212.3 94.85 212.13C94.6865 211.96 94.5952 211.733 94.5952 211.497C94.5952 211.262 94.6865 211.035 94.85 210.865C95.0134 210.695 95.2363 210.595 95.472 210.585H125.96C126.082 210.581 126.205 210.601 126.32 210.644C126.435 210.688 126.539 210.754 126.628 210.839C126.717 210.925 126.787 211.027 126.835 211.14C126.883 211.253 126.908 211.375 126.908 211.497C126.908 211.62 126.883 211.742 126.835 211.855C126.787 211.968 126.717 212.07 126.628 212.155C126.539 212.24 126.435 212.307 126.32 212.351C126.205 212.394 126.082 212.414 125.96 212.409Z" fill="#9EC8FF"/>
<path d="M103.029 226.48H72.5419C72.4191 226.485 72.2966 226.465 72.1817 226.421C72.0669 226.377 71.962 226.311 71.8734 226.226C71.7848 226.141 71.7144 226.039 71.6662 225.925C71.6181 225.812 71.5933 225.691 71.5933 225.568C71.5933 225.445 71.6181 225.323 71.6662 225.21C71.7144 225.097 71.7848 224.995 71.8734 224.91C71.962 224.825 72.0669 224.758 72.1817 224.715C72.2966 224.671 72.4191 224.651 72.5419 224.656H103.029C103.265 224.665 103.488 224.765 103.651 224.935C103.815 225.105 103.906 225.332 103.906 225.568C103.906 225.804 103.815 226.03 103.651 226.2C103.488 226.37 103.265 226.471 103.029 226.48Z" fill="#9EC8FF"/>
<path d="M108.646 224.656H105.49C105.318 224.656 105.179 224.795 105.179 224.967V226.169C105.179 226.341 105.318 226.48 105.49 226.48H108.646C108.818 226.48 108.957 226.341 108.957 226.169V224.967C108.957 224.795 108.818 224.656 108.646 224.656Z" fill="#9EC8FF"/>
<path d="M113.401 224.656H110.246C110.074 224.656 109.935 224.795 109.935 224.967V226.169C109.935 226.341 110.074 226.48 110.246 226.48H113.401C113.573 226.48 113.713 226.341 113.713 226.169V224.967C113.713 224.795 113.573 224.656 113.401 224.656Z" fill="#9EC8FF"/>
<path d="M126.254 216.39H75.7639C75.5999 216.39 75.4426 216.324 75.3266 216.208C75.2107 216.092 75.1455 215.935 75.1455 215.771C75.1455 215.607 75.2107 215.45 75.3266 215.334C75.4426 215.218 75.5999 215.153 75.7639 215.153H126.252C126.416 215.153 126.574 215.218 126.69 215.334C126.806 215.45 126.871 215.607 126.871 215.771C126.871 215.935 126.806 216.092 126.69 216.208C126.574 216.324 126.416 216.39 126.252 216.39H126.254Z" fill="#9EC8FF"/>
<path d="M126.254 219.054H75.7637C75.6047 219.046 75.4547 218.978 75.3448 218.863C75.2349 218.747 75.1736 218.594 75.1736 218.435C75.1736 218.276 75.2349 218.123 75.3448 218.007C75.4547 217.892 75.6047 217.824 75.7637 217.816H126.252C126.411 217.824 126.561 217.892 126.671 218.007C126.781 218.123 126.843 218.276 126.843 218.435C126.843 218.594 126.781 218.747 126.671 218.863C126.561 218.978 126.411 219.046 126.252 219.054H126.254Z" fill="#9EC8FF"/>
<path d="M161.517 279H116.483C115.664 279 115 279.289 115 279.646V281.354C115 281.711 115.664 282 116.483 282H161.517C162.336 282 163 281.711 163 281.354V279.646C163 279.289 162.336 279 161.517 279Z" fill="#9EC8FF"/>
<path d="M126.629 279H115.371C115.166 279 115 279.289 115 279.646V281.354C115 281.711 115.166 282 115.371 282H126.629C126.834 282 127 281.711 127 281.354V279.646C127 279.289 126.834 279 126.629 279Z" fill="#F39892"/>
<path d="M149.887 272H116.113C115.498 272 115 272.289 115 272.646V274.354C115 274.711 115.498 275 116.113 275H149.887C150.502 275 151 274.711 151 274.354V272.646C151 272.289 150.502 272 149.887 272Z" fill="#9EC8FF"/>
<path d="M123.722 272H115.278C115.125 272 115 272.289 115 272.646V274.354C115 274.711 115.125 275 115.278 275H123.722C123.875 275 124 274.711 124 274.354V272.646C124 272.289 123.875 272 123.722 272Z" fill="#F39892"/>
<path d="M154.733 265H116.267C115.567 265 115 265.289 115 265.646V267.354C115 267.711 115.567 268 116.267 268H154.733C155.433 268 156 267.711 156 267.354V265.646C156 265.289 155.433 265 154.733 265Z" fill="#9EC8FF"/>
<path d="M125.66 265H115.34C115.152 265 115 265.289 115 265.646V267.354C115 267.711 115.152 268 115.34 268H125.66C125.848 268 126 267.711 126 267.354V265.646C126 265.289 125.848 265 125.66 265Z" fill="#F39892"/>
<path d="M59 277.44C63.59 275.25 68.15 289.83 68.15 289.83C75.94 300.13 86.82 286.43 85.76 301.83C83.9 328.76 116.76 310.3 101.59 338.41C86.42 366.52 114.97 354.3 105.59 376.97C96.21 399.64 108.37 426.66 94.2 415.56C94.2 415.56 81.72 388.19 68.86 379.72C56 371.25 76.56 361.21 72.54 349.72C66.69 333.02 52.6 333.72 62.76 315.72C72.92 297.72 43.44 284.89 59 277.44Z" fill="#1487E3"/>
<path d="M98.6699 405.25C92.5299 400.93 85.34 370.82 84.91 352.89C84.6899 343.7 81.9699 339.89 79.5799 336.5C77.1899 333.11 75.3099 330.5 76.4599 324.08C78.6599 311.85 72.8799 306.57 72.8199 306.52L73.4899 305.76C73.7499 305.98 79.7699 311.43 77.4899 324.26C76.4199 330.26 78.1899 332.74 80.4899 335.91C82.7899 339.08 85.7799 343.37 85.9999 352.86C86.4599 372.11 93.8199 400.53 99.3399 404.42L98.6699 405.25Z" fill="white"/>
<path d="M101 407.48C100.126 407.472 99.2554 407.379 98.4 407.2C97.3626 407.067 96.3823 406.649 95.5684 405.993C94.7545 405.336 94.1389 404.466 93.79 403.48C92.13 398.75 95.97 391.05 99.08 387.35C102.372 382.959 104.037 377.562 103.79 372.08C103.7 370.6 103.54 369.23 103.41 368.03C103.02 364.53 102.73 362.03 104.23 360.32C105.56 358.83 108.11 358.19 112.77 358.17C120.95 358.17 124.18 354.75 126.77 352.03C127.747 350.879 128.898 349.887 130.18 349.09C134.25 346.86 138.57 346.54 140.44 348.31C141.33 349.15 142.08 350.8 140.61 353.88C139.475 356.129 137.952 358.161 136.11 359.88C134.23 361.8 132.98 363.08 133.63 365.61C133.78 366.2 133.96 366.81 134.13 367.41C135.39 371.72 136.82 376.61 129.45 379.92C127.88 380.63 126.45 381.18 125.19 381.68C120.04 383.68 116.94 384.92 113.43 392.33C112.75 393.76 112.15 395.12 111.57 396.43C108.78 402.74 106.69 407.48 101 407.48ZM130.65 350C129.461 350.752 128.393 351.679 127.48 352.75C124.75 355.61 121.35 359.16 112.75 359.2C108.46 359.2 106.06 359.78 104.96 361.02C103.86 362.26 104.03 364.7 104.39 367.93C104.52 369.15 104.68 370.54 104.77 372.04C105.08 377.791 103.328 383.464 99.83 388.04C96.75 391.71 93.26 399.04 94.72 403.19C95.0171 404.005 95.5342 404.721 96.2138 405.259C96.8935 405.798 97.7091 406.137 98.57 406.24C105.57 407.65 107.44 403.3 110.62 396.1C111.2 394.77 111.8 393.41 112.49 391.96C116.17 384.19 119.6 382.84 124.8 380.8C126.05 380.31 127.47 379.8 129.01 379.07C135.58 376.07 134.39 372.07 133.14 367.76C132.96 367.15 132.78 366.54 132.63 365.93C131.83 362.84 133.39 361.25 135.37 359.24C137.133 357.59 138.589 355.639 139.67 353.48C140.34 352.09 140.89 350.19 139.72 349.09C138.19 347.63 134.28 348.03 130.65 350.02V350Z" fill="url(#paint2_linear)"/>
<path d="M98.48 413.34H97.48C97.48 412.34 98.81 389.92 107.83 383.34C117.73 376.13 120.83 368.34 122.33 363.17C124.08 357.04 133 355.4 133.38 355.34L133.55 356.34C133.47 356.34 124.89 357.93 123.31 363.45C121.78 368.8 118.58 376.76 108.43 384.16C99.78 390.41 98.49 413.12 98.48 413.34Z" fill="url(#paint3_linear)"/>
<path d="M119.11 300.11C112.7 297.91 114.03 310.27 111.32 319.42C108.61 328.57 81.1801 323.42 92.6901 346.3C104.2 369.18 78.1301 354 85.9201 373.94C93.7101 393.88 86.6001 415.29 95.0601 409.86C103.52 404.43 99.8201 379.26 108.62 376.27C117.42 373.28 118.87 369.79 110.15 361.66C101.43 353.53 132.99 345.47 125.15 329.05C117.31 312.63 126.52 302.65 119.11 300.11Z" fill="#40D5E6"/>
<path d="M99 408.9C98.19 405.48 91.31 375.38 97.73 371.74C103.4 368.53 103.26 356.06 102.37 344.28C101.59 333.85 114.98 328.98 115.55 328.77L115.89 329.77C115.76 329.77 102.66 334.59 103.39 344.24C104.29 356.34 104.39 369.17 98.23 372.66C93.36 375.42 97.85 399.66 99.99 408.71L99 408.9Z" fill="white"/>
<path d="M113.57 398.18L104.41 432.91H83.95L74.8 398.18H113.57Z" fill="url(#paint4_linear)"/>
<path d="M113.57 398.18C113.57 398.18 93.41 402 93.41 432.91H84L74.8 398.18H113.57Z" fill="url(#paint5_linear)"/>
<path d="M170.82 353.06H141.98V354.77H170.82V353.06Z" fill="#E2D2CA"/>
<path d="M145.84 437.09H148.37V359.23H145.84V437.09Z" fill="#706865"/>
<path d="M186.36 352.58H166.31V355.03H186.36V352.58Z" fill="#CCBDB7"/>
<path d="M180.12 331.71H172.53V354.77H180.12V331.71Z" fill="#CFD4DB"/>
<path d="M242.71 354.8H131.63V359.23H242.71V354.8Z" fill="#B59074"/>
<path d="M110.31 328C110.31 328 109.1 345 112.43 347.07C114.51 348.35 122.83 352.66 122.58 353.47C122.33 354.28 117.89 360.65 117.89 360.65C117.89 360.65 101.89 350.14 101.4 346.82C100.91 343.5 102.19 321.88 104.4 320.88C106.05 320.13 106.91 320.75 108.99 322.29C111.87 324.46 110.31 328 110.31 328Z" fill="#FFB555"/>
<path d="M130 426.46C130 426.46 129.51 429.91 129.44 430.46C129.37 431.01 123.92 430.15 123.92 430.15L123.48 426.05C123.48 426.05 129.28 426 130 426.46Z" fill="#424773"/>
<path d="M129.46 430C130.436 431.169 131.586 432.181 132.87 433C134.54 433.91 137.17 434.26 138.16 435.2C138.88 435.88 140.76 438.79 133.81 438.73C126.86 438.67 123.51 439.14 122.81 438.03C122.11 436.92 123.89 429.78 123.89 429.78C123.89 429.78 125.49 430.35 129.46 430Z" fill="#292C47"/>
<path d="M165 426.49C165 426.49 164.51 429.94 164.44 430.49C164.37 431.04 158.92 430.18 158.92 430.18L158.48 426.08C158.48 426.08 164.28 426 165 426.49Z" fill="#424773"/>
<path d="M164.46 430C165.433 431.172 166.583 432.185 167.87 433C169.54 433.91 175.7 434.65 176.69 435.59C177.4 436.27 178.59 438.99 168.81 438.73C161.86 438.55 158.51 439.15 157.76 438.03C157.01 436.91 158.84 429.79 158.84 429.79C158.84 429.79 160.39 430.42 164.46 430Z" fill="#292C47"/>
<path d="M112.34 366.92C112.34 366.92 132.2 370.28 136.69 370.98C141.18 371.68 165.5 377.74 168.54 379.58C170.96 381.05 167.27 416.3 166.41 429.75H156.83L156.13 389.41C144.64 389.69 136.43 386.72 128.06 387.99C119.69 389.26 112.71 391.07 107.39 383.93C107.39 383.93 107.2 368.47 112.34 366.92Z" fill="#292C47"/>
<path d="M131.92 429.79L122.58 429.21L121.67 389.41C118.107 389.513 114.541 389.286 111.02 388.73L103.49 371.21C110.09 372.53 131.26 377.87 134.08 379.58C136.5 381.05 132.78 416.33 131.92 429.79Z" fill="#292C47"/>
<path d="M121.49 292.47C121.49 292.47 128.77 290.47 131.49 296.11C134.21 301.75 133.01 312.48 129.34 313.48C125.67 314.48 120.4 313.33 118.87 309.81C117.34 306.29 116.14 301.3 116.5 298.06C116.86 294.82 119.55 293.24 121.49 292.47Z" fill="#EEA886"/>
<path d="M127.49 312.36C127.49 312.36 127.41 316.66 127.89 317.57C128.37 318.48 117.75 318.26 117.75 318.26C117.75 318.26 119.42 313.1 118.47 308.7C117.52 304.3 127.49 312.36 127.49 312.36Z" fill="#EEA886"/>
<path d="M117.9 307.07C117.9 307.07 118.47 308.22 121.21 308.07C123.95 307.92 127.58 304.57 128.75 304.27C129.92 303.97 129.98 303.27 129.98 303.27L130.6 304.37L131.8 304.55C131.8 304.55 130.98 301.23 132.75 300.06C134.52 298.89 131.96 289.47 123 291.75C123 291.75 116.16 293 116.07 296.81C115.98 300.62 116.57 305.05 117.9 307.07Z" fill="#3A3F47"/>
<path d="M128.44 317.46C128.44 317.46 128.44 315.71 127.62 315.54C126.8 315.37 119.28 314.34 118.3 314.72L117.89 317.03C117.89 317.03 119.76 318.19 128.44 317.46Z" fill="#E2D2CA"/>
<path d="M130.63 302.5C130.42 301.07 128.79 299.42 127.86 301.65C126.93 303.88 128.49 307.14 129.54 306.97C130.59 306.8 130.9 304.45 130.63 302.5Z" fill="#EEA886"/>
<path d="M160.06 338.15C160.1 338.17 160.11 338.17 160.06 338.15V338.15Z" fill="#323657"/>
<path d="M119.36 293.5C119.36 293.5 110.49 293.08 117.81 306.94L119.36 293.5Z" fill="#3A3F47"/>
<path d="M99.58 434.51L100.25 436.37L128.15 427.72L126.81 423.96L99.58 434.51Z" fill="#918783"/>
<path d="M129.1 396.06H125.93V426.39H129.1V396.06Z" fill="#918783"/>
<path d="M136.87 394.45H118.17V396.24H136.87V394.45Z" fill="#5E5854"/>
<path d="M155.69 434.51L155.03 436.37L127.13 427.72L128.36 423.72L155.69 434.51Z" fill="#918783"/>
<path d="M136.04 436.17V438.33L127.13 427.72L128.36 423.72L136.04 436.17Z" fill="#918783"/>
<path d="M155.7 439.7C157.141 439.7 158.31 438.531 158.31 437.09C158.31 435.649 157.141 434.48 155.7 434.48C154.259 434.48 153.09 435.649 153.09 437.09C153.09 438.531 154.259 439.7 155.7 439.7Z" fill="#BFB2AC"/>
<path d="M136.26 437.09C136.26 437.606 136.107 438.111 135.82 438.54C135.533 438.969 135.126 439.304 134.649 439.501C134.172 439.699 133.647 439.751 133.141 439.65C132.635 439.549 132.17 439.301 131.804 438.936C131.439 438.571 131.191 438.105 131.09 437.599C130.989 437.093 131.041 436.568 131.239 436.091C131.436 435.614 131.771 435.207 132.2 434.92C132.629 434.633 133.134 434.48 133.65 434.48C133.993 434.48 134.332 434.547 134.649 434.679C134.966 434.81 135.253 435.002 135.496 435.244C135.738 435.487 135.93 435.774 136.061 436.091C136.193 436.408 136.26 436.747 136.26 437.09Z" fill="#BFB2AC"/>
<path d="M102.19 437.09C102.19 437.607 102.037 438.112 101.749 438.541C101.462 438.97 101.054 439.305 100.576 439.502C100.099 439.699 99.5737 439.751 99.0671 439.649C98.5605 439.548 98.0955 439.298 97.7309 438.932C97.3663 438.566 97.1185 438.1 97.0189 437.593C96.9193 437.086 96.9724 436.561 97.1715 436.084C97.3706 435.608 97.7067 435.201 98.1372 434.915C98.5677 434.629 99.0733 434.478 99.59 434.48C99.9322 434.48 100.271 434.548 100.587 434.679C100.903 434.81 101.19 435.003 101.432 435.245C101.674 435.488 101.865 435.775 101.995 436.092C102.125 436.409 102.191 436.748 102.19 437.09Z" fill="#BFB2AC"/>
<path d="M146.45 387.68H108.82C106.975 387.68 105.48 389.175 105.48 391.02V391.11C105.48 392.955 106.975 394.45 108.82 394.45H146.45C148.295 394.45 149.79 392.955 149.79 391.11V391.02C149.79 389.175 148.295 387.68 146.45 387.68Z" fill="#E2D2CA"/>
<path d="M228.5 359.23H225.97V437.09H228.5V359.23Z" fill="#706865"/>
<path d="M205.77 296.58H146.88C145.041 296.58 143.55 298.071 143.55 299.91V339.49C143.55 341.329 145.041 342.82 146.88 342.82H205.77C207.609 342.82 209.1 341.329 209.1 339.49V299.91C209.1 298.071 207.609 296.58 205.77 296.58Z" fill="#CFD4DB"/>
<path d="M206.54 299.08H146.12V335.58H206.54V299.08Z" fill="#F5F7FF"/>
<path d="M177.934 338.499C178.041 338.902 178.017 339.328 177.868 339.717C177.719 340.106 177.452 340.439 177.104 340.669C176.755 340.899 176.344 341.014 175.926 340.999C175.509 340.983 175.107 340.838 174.776 340.583C174.446 340.328 174.204 339.976 174.084 339.577C173.964 339.178 173.973 338.752 174.108 338.358C174.244 337.964 174.5 337.622 174.84 337.38C175.181 337.139 175.588 337.009 176.006 337.011C176.458 336.961 176.912 337.088 177.272 337.366C177.632 337.643 177.869 338.05 177.934 338.499Z" fill="white"/>
<path d="M189.9 354.86V354C189.9 354 188.74 348.88 180.56 348.88C172.38 348.88 172.56 354.82 172.56 354.82L189.9 354.86Z" fill="#998E89"/>
<path d="M172.44 349.68C173.272 349.629 174.092 349.45 174.87 349.15C175.52 348.76 179.42 346.15 180.34 346.55C181.26 346.95 187.34 348.84 187.13 349.73C186.92 350.62 186.36 350.54 185.93 350.38C184.21 349.919 182.454 349.608 180.68 349.45C180.68 349.45 185 351 185 352.19C185 353.38 184.1 353.63 183.68 354.07C183.26 354.51 182.78 355.59 181.68 355.67C180.58 355.75 175.09 353.86 173.97 353.77C172.852 353.801 171.733 353.761 170.62 353.65C171.134 352.286 171.742 350.959 172.44 349.68Z" fill="#EEA886"/>
<path d="M140.08 319.89C134.41 318.89 128.44 317.46 128.44 317.46L117.89 317C117.89 317 108.2 319.13 104.38 320.86C104.02 321.02 104.02 329.5 103.02 331.72L106.19 338.4C106.19 338.4 108.02 351.62 108.4 357.5C108.57 360.2 107.9 383.59 107.9 383.59C107.9 383.59 108.85 384.05 116.06 384.85C123.27 385.65 141.26 384.56 141.38 383.71C141.5 382.86 137.89 352.02 137.73 350.43C137.49 347.97 138.44 336.65 138.44 336.65C139.8 338.47 143.26 346.71 146.86 350.65C148.99 352.95 159.49 354.36 161.47 354.43C165.78 354.57 173.65 355.43 173.88 355.01C174.06 354.76 174.56 348.01 174.07 347.87C173.58 347.73 159.07 346.87 155.29 344.87C153.93 344.14 149.83 335.22 149.83 335.22C149.83 335.22 143.2 321.29 140.08 319.89Z" fill="#FFB555"/>
<path d="M119.27 340.62H101.55C98.0043 340.62 95.13 343.494 95.13 347.04V376.52C95.13 380.066 98.0043 382.94 101.55 382.94H119.27C122.816 382.94 125.69 380.066 125.69 376.52V347.04C125.69 343.494 122.816 340.62 119.27 340.62Z" fill="#E2D2CA"/>
<path d="M120.28 392.77C118.25 392.854 116.226 392.494 114.349 391.717C112.472 390.94 110.787 389.764 109.41 388.27C103.31 381.53 104.41 369.67 104.41 369.17C104.454 368.721 104.674 368.307 105.023 368.02C105.372 367.733 105.82 367.596 106.27 367.64C106.72 367.684 107.133 367.904 107.42 368.253C107.707 368.602 107.844 369.051 107.8 369.5C107.8 369.64 106.8 380.38 111.9 385.99C112.958 387.13 114.253 388.023 115.694 388.607C117.135 389.191 118.687 389.452 120.24 389.37C120.463 389.37 120.684 389.414 120.891 389.499C121.097 389.585 121.284 389.71 121.442 389.868C121.6 390.026 121.725 390.213 121.811 390.42C121.896 390.626 121.94 390.847 121.94 391.07C121.94 391.293 121.896 391.514 121.811 391.721C121.725 391.927 121.6 392.114 121.442 392.272C121.284 392.43 121.097 392.555 120.891 392.641C120.684 392.726 120.463 392.77 120.24 392.77H120.28Z" fill="#E2D2CA"/>
<path d="M167.62 301.98H150.88C150.615 301.98 150.4 302.195 150.4 302.46V303.43C150.4 303.695 150.615 303.91 150.88 303.91H167.62C167.885 303.91 168.1 303.695 168.1 303.43V302.46C168.1 302.195 167.885 301.98 167.62 301.98Z" fill="#DFE1E8"/>
<path d="M167.62 306.12H150.88C150.615 306.12 150.4 306.335 150.4 306.6V307.57C150.4 307.835 150.615 308.05 150.88 308.05H167.62C167.885 308.05 168.1 307.835 168.1 307.57V306.6C168.1 306.335 167.885 306.12 167.62 306.12Z" fill="#DFE1E8"/>
<path d="M166.49 310.86H152.01C151.121 310.86 150.4 311.581 150.4 312.47V331.05C150.4 331.939 151.121 332.66 152.01 332.66H166.49C167.379 332.66 168.1 331.939 168.1 331.05V312.47C168.1 311.581 167.379 310.86 166.49 310.86Z" fill="#DFE1E8"/>
<path d="M200.66 301.98H174.22C172.817 301.98 171.68 303.117 171.68 304.52V330.12C171.68 331.523 172.817 332.66 174.22 332.66H200.66C202.063 332.66 203.2 331.523 203.2 330.12V304.52C203.2 303.117 202.063 301.98 200.66 301.98Z" fill="#DFE1E8"/>
<path d="M165.42 137.61H164.85V196.95H165.42V137.61Z" fill="#E0E0E0"/>
<path d="M205.63 137.61H205.06V196.95H205.63V137.61Z" fill="#E0E0E0"/>
<path d="M245.84 137.61H245.27V196.95H245.84V137.61Z" fill="#E0E0E0"/>
<path d="M286.05 137.61H285.48V196.95H286.05V137.61Z" fill="#E0E0E0"/>
<path d="M326.26 137.61H325.7V196.95H326.26V137.61Z" fill="#E0E0E0"/>
<path d="M171.53 200.46H165.13V202.52H171.53V200.46Z" fill="#B8B8B8"/>
<path d="M174.76 130.29H165.13V131.84H174.76V130.29Z" fill="#D9D9D9"/>
<path d="M178.79 133.15H165.13V134.69H178.79V133.15Z" fill="#D9D9D9"/>
<path d="M216.22 130.29H204.91V131.84H216.22V130.29Z" fill="#D9D9D9"/>
<path d="M212.14 133.15H204.91V134.69H212.14V133.15Z" fill="#D9D9D9"/>
<path d="M252.85 130.29H245.84V131.84H252.85V130.29Z" fill="#D9D9D9"/>
<path d="M254.01 133.15H245.84V134.69H254.01V133.15Z" fill="#D9D9D9"/>
<path d="M296.26 130.29H286.05V131.84H296.26V130.29Z" fill="#D9D9D9"/>
<path d="M294.22 133.15H286.05V134.69H294.22V133.15Z" fill="#D9D9D9"/>
<path d="M332.08 130.29H325.98V131.84H332.08V130.29Z" fill="#D9D9D9"/>
<path d="M330.86 133.15H325.98V134.69H330.86V133.15Z" fill="#D9D9D9"/>
<path d="M211.74 200.46H205.34V202.52H211.74V200.46Z" fill="#B8B8B8"/>
<path d="M252.24 200.46H245.84V202.52H252.24V200.46Z" fill="#B8B8B8"/>
<path d="M292.45 200.46H286.05V202.52H292.45V200.46Z" fill="#B8B8B8"/>
<path d="M332.66 200.46H326.26V202.52H332.66V200.46Z" fill="#B8B8B8"/>
<path d="M312 179.31C299.46 179.31 288.56 173.89 277.19 168.24C263.19 161.24 248.65 154.04 229.32 156.02C216.97 157.28 209.22 162.31 202.39 166.74C196.19 170.74 190.34 174.29 182.39 174.6C169.58 175.08 165.13 169.6 165.06 169.29V165.78C165.06 165.84 167.87 171.97 182.37 171.9C189.51 171.9 194.78 168.44 200.89 164.48C207.98 159.88 216.02 154.67 229.01 153.34C249.12 151.28 264.01 158.68 278.36 165.82C293.36 173.3 307.76 180.32 325.91 174.23V177.12C321.434 178.645 316.728 179.386 312 179.31Z" fill="#FFC05C"/>
<path d="M236.76 178.64C227.5 178.64 220.16 172.41 212.97 166.32C207.52 161.7 201.86 156.97 195.33 154.64C175.41 147.53 165.22 160.52 165.13 160.64V156.69C165.24 156.56 167.05 154.2 172.31 151.94C177.1 149.89 185.14 148.25 196.22 152.11C203.22 154.55 209.07 159.49 214.71 164.27C226.15 173.97 236.03 182.35 253.19 169.27C266.19 159.33 278.43 149.86 290.48 146.4C302.27 143.02 314.56 145.5 326.06 157L325.98 160.59C301.54 136.04 280.74 151.59 254.82 171.41C248 176.61 242 178.64 236.76 178.64Z" fill="#40D5E6"/>
<path d="M424.33 274.71H364.22C362.024 274.705 359.919 273.829 358.367 272.275C356.815 270.722 355.943 268.616 355.94 266.42V213.22C355.945 211.026 356.819 208.923 358.371 207.371C359.923 205.819 362.026 204.945 364.22 204.94H424.33C426.524 204.945 428.627 205.819 430.179 207.371C431.731 208.923 432.605 211.026 432.61 213.22V266.42C432.607 268.616 431.734 270.722 430.182 272.275C428.631 273.829 426.526 274.705 424.33 274.71ZM364.22 206C362.293 206.003 360.445 206.769 359.082 208.132C357.719 209.495 356.953 211.343 356.95 213.27V266.47C356.953 268.398 357.719 270.247 359.082 271.611C360.444 272.976 362.292 273.745 364.22 273.75H424.33C426.258 273.745 428.106 272.976 429.468 271.611C430.831 270.247 431.597 268.398 431.6 266.47V213.27C431.597 211.343 430.83 209.495 429.468 208.132C428.105 206.769 426.257 206.003 424.33 206H364.22Z" fill="#9EC8FF"/>
<path d="M454.33 424.34C454.33 424.34 454.87 428.16 454.94 428.73C455.01 429.3 461 428.39 461 428.39L461.48 423.85C461.48 423.85 455.07 423.81 454.33 424.34Z" fill="#5C544D"/>
<path d="M454.88 428.25C453.811 429.537 452.55 430.65 451.14 431.55C449.31 432.55 446.42 432.95 445.34 433.99C444.55 434.73 442.48 437.99 450.1 437.89C457.72 437.79 461.4 438.35 462.22 437.11C463.04 435.87 461.04 427.99 461.04 427.99C461.04 427.99 459.23 428.64 454.88 428.25Z" fill="#3C4145"/>
<path d="M411.39 424.34C411.39 424.34 411.94 428.16 412 428.73C412.06 429.3 418.06 428.39 418.06 428.39L418.55 423.85C418.55 423.85 412.16 423.81 411.39 424.34Z" fill="#5C544D"/>
<path d="M411.96 428.25C410.893 429.535 409.635 430.648 408.23 431.55C406.39 432.55 399.64 433.38 398.55 434.41C397.77 435.16 396.47 438.18 407.19 437.89C414.81 437.69 418.49 438.35 419.31 437.11C420.13 435.87 418.12 427.99 418.12 427.99C418.12 427.99 416.39 428.69 411.96 428.25Z" fill="#3C4145"/>
<path d="M452.2 325.83C452.2 325.83 455.39 335.3 454.97 343.46C454.55 351.62 456.61 360.55 457.46 369.07C458.4 378.58 462.26 401.07 462.4 406.16C462.54 411.25 461.8 427.47 461.8 427.47L454.08 427.65C454.08 427.65 447.6 388.32 445.92 384.31C444.24 380.3 435.92 351.68 435.63 348.47C435.34 345.26 452.2 325.83 452.2 325.83Z" fill="#33373B"/>
<path d="M419.74 327.52C419.74 327.52 415.5 349.88 414.94 354.88C414.38 359.88 414.01 379.04 413.73 382.17C413.45 385.3 411.86 423 410.39 427.65H420.26C420.26 427.65 427.83 400.22 427.83 387.25C427.83 374.28 433.69 359.04 437.47 350.48C441.25 341.92 449.9 341.71 452.22 325.83C452.2 325.83 422.89 322.48 419.74 327.52Z" fill="#3C4145"/>
<path d="M439.8 251.08C439.8 251.08 432.02 248.18 428.43 254.08C424.84 259.98 425.19 271.86 429.11 273.32C433.03 274.78 438.93 274.01 440.93 270.32C442.93 266.63 444.75 261.25 444.67 257.67C444.59 254.09 441.84 252.12 439.8 251.08Z" fill="#EEA886"/>
<path d="M430.39 273C430.553 274.003 430.481 275.03 430.18 276C429.66 277 439.97 277 439.97 277C440.525 273.611 441.334 270.268 442.39 267C444.01 262.35 430.39 273 430.39 273Z" fill="#EEA886"/>
<path d="M442.39 267C442.39 267 441.68 268.18 438.78 267.72C435.88 267.26 432.33 263.41 431.12 262.98C429.91 262.55 429.9 261.84 429.9 261.84L429.14 262.95L427.85 263.03C427.85 263.03 429.02 259.58 427.25 258.17C425.48 256.76 429.12 247 438.39 250.2C438.39 250.2 445.54 252.2 445.29 256.2C445.04 260.2 444.02 264.94 442.39 267Z" fill="#FCCCA2"/>
<path d="M429.6 275.9C429.6 275.9 429.6 273.98 430.5 273.79C431.4 273.6 440.11 272.79 441.18 273.19V275.42C441.18 275.42 439.12 276.69 429.6 275.9Z" fill="#E2D2CA"/>
<path d="M430.12 260.33C430.28 259.64 432.02 257.69 432.68 259.78C433.34 261.87 431.68 264.68 430.75 264.44C429.82 264.2 429.7 262.05 430.12 260.33Z" fill="#EEA886"/>
<path d="M429.6 275.9C429.6 275.9 424.81 277.62 419.27 279.97C417.36 280.772 415.698 282.069 414.456 283.726C413.213 285.383 412.434 287.342 412.2 289.4C411.83 293.14 407.85 312.99 407.1 314.67C406.35 316.35 397.53 343.33 397.22 343.89C396.91 344.45 404.42 347.57 404.92 347.32C405.42 347.07 413.47 322.71 414.28 320.91C414.28 320.91 418.91 306.3 419.04 304.13C419.04 304.13 419.17 310.33 419.42 312.07C419.67 313.81 415.3 347.63 415.42 348.57C415.54 349.51 435.28 350.68 443.18 349.81C448 349.273 452.773 348.377 457.46 347.13C457.46 347.13 451.24 320.44 451.46 317.48C451.88 311.03 454.03 298.88 454.03 298.88L460.44 311L452.2 332.21L454.09 338.66C454.09 338.66 469.41 315.51 469.9 313.39C470.39 311.27 469.15 308.58 468.35 306.84C467.55 305.1 462.23 291.84 460.98 289.98C459.73 288.12 457.64 280.64 452.56 278.56C448.85 277.223 445.046 276.164 441.18 275.39L429.6 275.9Z" fill="#495054"/>
<path d="M425.547 330.916L389.455 321.662L383 346.838L419.093 356.091L425.547 330.916Z" fill="#D6D6D6"/>
<path d="M394.07 349.39C394.07 349.39 393.07 351.06 392.66 351.54C392.25 352.02 393.59 352.31 394.15 351.83C394.71 351.35 394.07 349.39 394.07 349.39Z" fill="#C98462"/>
<path d="M401.59 355.09C401.887 354.797 402.137 354.46 402.33 354.09C402.33 354.09 402.51 353.33 402.67 352.8C402.72 352.63 402.77 352.49 402.81 352.39C403.201 351.709 403.481 350.969 403.64 350.2C403.8 349.2 404.25 344.56 404.25 344.56L401.45 343.85L399.2 343.38C399.2 343.38 394.35 348.22 394.09 349.16L394.03 349.43C393.987 350.074 394.014 350.721 394.11 351.36C394.11 351.52 394.11 353.12 394.49 353.42C394.685 353.601 394.924 353.73 395.183 353.793C395.442 353.856 395.713 353.851 395.97 353.78C396.538 354.196 397.209 354.448 397.91 354.51C398.193 354.719 398.521 354.862 398.867 354.926C399.214 354.99 399.57 354.974 399.91 354.88C399.91 354.88 400.97 355.48 401.59 355.09Z" fill="#DE9D7D"/>
<path d="M412.5 325.88C412.5 325.88 406.1 345.28 404.92 347.32C402.149 346.705 399.53 345.539 397.22 343.89L404.22 322.95L412.5 325.88Z" fill="#495054"/>
<rect width="45" height="39" transform="translate(373 220)" fill="white" fill-opacity="0.01"/>
<path d="M402.575 231.332H378.716C377.611 231.332 376.716 232.227 376.716 233.332V257C376.716 258.105 377.611 259 378.716 259H402.575C403.679 259 404.575 258.105 404.575 257V233.332C404.575 232.227 403.679 231.332 402.575 231.332Z" fill="#CFD4DB"/>
<path d="M381.671 240.792H388.279" stroke="white"/>
<path d="M381.671 238.6H388.279" stroke="white"/>
<path d="M381.671 236.407H385.246" stroke="white"/>
<path d="M379.638 236.407H380.455" stroke="white"/>
<path d="M379.638 238.6H380.455" stroke="white"/>
<path d="M379.638 240.792H380.455" stroke="white"/>
<path d="M379.638 242.985H380.455" stroke="white"/>
<path d="M379.638 245.178H380.455" stroke="white"/>
<path d="M379.638 247.371H380.455" stroke="white"/>
<path d="M379.638 249.563H380.455" stroke="white"/>
<path d="M379.638 251.756H380.455" stroke="white"/>
<path d="M379.638 253.949H380.455" stroke="white"/>
<path d="M389.652 247.371H400.905" stroke="white"/>
<path d="M392.412 249.563H401.988" stroke="white"/>
<path d="M385.246 249.563H391.166" stroke="white"/>
<path d="M385.246 251.756H398.265" stroke="white"/>
<path d="M388.822 253.949H394.199" stroke="white"/>
<path d="M385.824 242.985H391.997" stroke="white"/>
<path d="M385.824 245.178H391.997" stroke="white"/>
<path style="mix-blend-mode:multiply" d="M410.307 223.115H386.447C385.343 223.115 384.447 224.011 384.447 225.115V248.784C384.447 249.888 385.343 250.784 386.447 250.784H410.307C411.411 250.784 412.307 249.888 412.307 248.784V225.115C412.307 224.011 411.411 223.115 410.307 223.115Z" fill="url(#paint6_linear)"/>
<path d="M413.415 220H389.556C388.451 220 387.556 220.895 387.556 222V245.668C387.556 246.773 388.451 247.668 389.556 247.668H413.415C414.52 247.668 415.415 246.773 415.415 245.668V222C415.415 220.895 414.52 220 413.415 220Z" fill="#1487E3"/>
<path d="M392.511 229.461H399.122" stroke="#F39892"/>
<path d="M392.511 227.268H399.122" stroke="#4AAFFF"/>
<path d="M392.511 225.075H396.087" stroke="#E5E8EC"/>
<path d="M390.48 225.075H391.296" stroke="#E5E8EC"/>
<path d="M390.48 227.268H391.296" stroke="#E5E8EC"/>
<path d="M390.48 229.461H391.296" stroke="#E5E8EC"/>
<path d="M390.48 231.654H391.296" stroke="#E5E8EC"/>
<path d="M390.48 233.846H391.296" stroke="#E5E8EC"/>
<path d="M390.48 236.037H391.296" stroke="#E5E8EC"/>
<path d="M390.48 238.23H391.296" stroke="#E5E8EC"/>
<path d="M390.48 240.423H391.296" stroke="#E5E8EC"/>
<path d="M390.48 242.615H391.296" stroke="#E5E8EC"/>
<path d="M400.492 236.037H411.746" stroke="#F39892"/>
<path d="M403.254 238.23H412.831" stroke="#F39892"/>
<path d="M396.087 238.23H402.007" stroke="#4AAFFF"/>
<path d="M396.087 240.423H409.108" stroke="#4AAFFF"/>
<path d="M399.662 242.615H405.042" stroke="#E5E8EC"/>
<path d="M396.666 231.654H402.839" stroke="#E5E8EC"/>
<path d="M396.666 233.846H402.839" stroke="#E5E8EC"/>
<path d="M375.736 254.951L373 257.693" stroke="#9EC8FF"/>
<path d="M412.799 233.107H405.577" stroke="#FAFBFC"/>
<path d="M379.771 256.511C382.878 256.511 385.397 253.987 385.397 250.872C385.397 247.758 382.878 245.233 379.771 245.233C376.663 245.233 374.144 247.758 374.144 250.872C374.144 253.987 376.663 256.511 379.771 256.511Z" fill="#E5E8EC"/>
<path d="M382.442 253.822H379.151" stroke="white"/>
<path d="M382.442 250.334H379.151" stroke="white"/>
<path d="M382.287 246.847H379.151" stroke="white"/>
<path d="M379.771 256.511C382.878 256.511 385.397 253.987 385.397 250.872C385.397 247.758 382.878 245.233 379.771 245.233C376.663 245.233 374.144 247.758 374.144 250.872C374.144 253.987 376.663 256.511 379.771 256.511Z" stroke="#9EC8FF"/>
<path d="M229.881 316.104H245.763C245.763 324.816 238.593 331.984 229.881 331.984C221.168 331.984 214 324.819 214 316.104C214 307.389 221.168 300.222 229.881 300.222V316.104Z" fill="#1487E3"/>
<path d="M248.423 313.882C248.423 309.67 246.75 305.63 243.771 302.652C240.793 299.673 236.753 298 232.541 298V313.882H248.423Z" fill="#F39892"/>
<path d="M375.225 129.245C375.252 128.998 375.266 128.749 375.266 128.5C375.266 128.366 375.262 128.235 375.254 128.104L374.024 127.706C373.95 127.197 373.803 126.7 373.588 126.232L374.404 125.228C374.216 124.897 374 124.582 373.758 124.288L372.527 124.69C372.167 124.322 371.757 124.007 371.309 123.754L371.379 122.461C371.032 122.303 370.673 122.175 370.304 122.08L369.545 123.128C369.037 123.042 368.52 123.029 368.008 123.088L367.304 122C366.931 122.076 366.566 122.183 366.211 122.322L366.213 123.617C365.752 123.846 365.326 124.139 364.947 124.488L363.74 124.022C363.483 124.303 363.251 124.605 363.045 124.926L363.807 125.972C363.568 126.428 363.395 126.916 363.293 127.421L362.042 127.756C362.014 128.004 362 128.252 362 128.501C362 128.635 362.004 128.766 362.012 128.897L363.243 129.295C363.317 129.805 363.464 130.301 363.678 130.769L362.862 131.774C363.051 132.105 363.267 132.419 363.509 132.713L364.74 132.311C365.099 132.679 365.51 132.994 365.958 133.248L365.888 134.541C366.234 134.699 366.594 134.826 366.962 134.921L367.722 133.872C368.229 133.958 368.747 133.972 369.258 133.912L369.962 135C370.335 134.924 370.7 134.816 371.055 134.677L371.053 133.382C371.514 133.153 371.941 132.86 372.319 132.511L373.526 132.977C373.784 132.696 374.017 132.393 374.223 132.073L373.461 131.027C373.7 130.571 373.873 130.083 373.975 129.578L375.225 129.245ZM368.633 131.102C368.119 131.102 367.616 130.949 367.189 130.663C366.761 130.377 366.428 129.971 366.232 129.496C366.035 129.02 365.984 128.498 366.084 127.993C366.185 127.489 366.432 127.026 366.796 126.662C367.16 126.299 367.623 126.051 368.128 125.951C368.632 125.851 369.155 125.902 369.63 126.099C370.105 126.296 370.511 126.629 370.797 127.057C371.082 127.485 371.235 127.987 371.235 128.501C371.235 128.843 371.168 129.181 371.037 129.497C370.906 129.812 370.714 130.099 370.473 130.341C370.231 130.582 369.944 130.774 369.629 130.904C369.313 131.035 368.975 131.102 368.633 131.102Z" fill="#9EC8FF"/>
<path d="M372.182 131.504C372.156 131.504 372.131 131.497 372.11 131.483C372.088 131.47 372.071 131.45 372.06 131.427C372.049 131.404 372.045 131.378 372.049 131.353C372.052 131.328 372.062 131.304 372.079 131.285C372.556 130.708 372.878 130.019 373.013 129.283C373.147 128.547 373.09 127.788 372.848 127.08C372.836 127.047 372.838 127.01 372.854 126.978C372.869 126.946 372.897 126.922 372.931 126.91C372.964 126.899 373.001 126.901 373.033 126.916C373.065 126.932 373.09 126.96 373.101 126.993C373.359 127.745 373.419 128.55 373.276 129.331C373.134 130.113 372.792 130.845 372.285 131.456C372.272 131.471 372.256 131.483 372.239 131.492C372.221 131.5 372.201 131.504 372.182 131.504Z" fill="#9EC8FF"/>
<path d="M371.805 125.364C371.771 125.364 371.738 125.351 371.713 125.327C371.282 124.92 370.771 124.605 370.213 124.403C370.196 124.397 370.181 124.388 370.168 124.376C370.155 124.364 370.144 124.35 370.136 124.334C370.129 124.318 370.124 124.3 370.124 124.283C370.123 124.265 370.125 124.247 370.131 124.231C370.137 124.214 370.147 124.199 370.159 124.186C370.171 124.173 370.185 124.162 370.201 124.155C370.217 124.147 370.235 124.143 370.253 124.142C370.27 124.142 370.288 124.145 370.305 124.151C370.897 124.365 371.439 124.699 371.897 125.132C371.916 125.15 371.93 125.174 371.936 125.201C371.942 125.227 371.94 125.254 371.93 125.279C371.92 125.304 371.903 125.325 371.88 125.341C371.858 125.356 371.832 125.364 371.805 125.364Z" fill="#9EC8FF"/>
<path d="M367.624 124.279C367.591 124.279 367.56 124.267 367.535 124.245C367.511 124.224 367.495 124.194 367.491 124.161C367.487 124.129 367.495 124.096 367.513 124.069C367.532 124.042 367.56 124.023 367.591 124.015C367.963 123.921 368.344 123.874 368.727 123.875C368.762 123.875 368.796 123.889 368.821 123.914C368.847 123.939 368.861 123.973 368.861 124.009C368.861 124.044 368.847 124.078 368.821 124.103C368.796 124.128 368.762 124.143 368.727 124.143C368.366 124.142 368.007 124.187 367.657 124.275C367.646 124.278 367.635 124.279 367.624 124.279Z" fill="#9EC8FF"/>
<path d="M130 248.5C130 249.983 129.56 251.433 128.736 252.667C127.912 253.9 126.741 254.861 125.37 255.429C124 255.997 122.492 256.145 121.037 255.856C119.582 255.566 118.246 254.852 117.197 253.803C116.148 252.754 115.434 251.418 115.144 249.963C114.855 248.508 115.003 247 115.571 245.63C116.139 244.259 117.1 243.088 118.333 242.264C119.567 241.44 121.017 241 122.5 241C124.489 241 126.397 241.79 127.803 243.197C129.21 244.603 130 246.511 130 248.5Z" fill="#9EC8FF"/>
<path d="M121.756 251.067H121.742C121.692 251.066 121.644 251.054 121.599 251.033C121.554 251.012 121.514 250.982 121.48 250.945L119.443 248.63C119.378 248.556 119.345 248.461 119.35 248.363C119.356 248.265 119.401 248.174 119.474 248.109C119.547 248.045 119.643 248.011 119.74 248.017C119.838 248.023 119.929 248.067 119.994 248.141L121.775 250.165L125.851 246.176C125.92 246.108 126.014 246.07 126.111 246.071C126.209 246.072 126.302 246.112 126.37 246.182C126.438 246.251 126.476 246.345 126.475 246.442C126.473 246.539 126.434 246.632 126.364 246.7L122.012 250.96C121.944 251.028 121.852 251.067 121.756 251.067Z" fill="white"/>
<path d="M200.468 271H197V281.037H200.468V271Z" fill="#9EC8FF"/>
<path d="M193.468 273H190V281.037H193.468V273Z" fill="#9EC8FF"/>
<path d="M244.926 274H241.458V280.771H244.926V274Z" fill="#9EC8FF"/>
<path d="M215.167 258H211.699V281.482H215.167V258Z" fill="#9EC8FF"/>
<path d="M222.518 270H219.05V280.554H222.518V270Z" fill="#9EC8FF"/>
<path d="M229.868 267H226.399V280.543H229.868V267Z" fill="#9EC8FF"/>
<path d="M207.818 264H204.35V280.663H207.818V264Z" fill="#9EC8FF"/>
<path d="M237.243 260H233.774V280.523H237.243V260Z" fill="#9EC8FF"/>
<path d="M227.445 240.114L202.763 245.591L199.33 230.12L218.9 225.777L225.147 229.759L227.445 240.114Z" fill="#9EC8FF"/>
<path d="M218.92 226.961L200.549 231.038L203.445 244.091L226.286 239.024L224.59 231.38L220.121 232.371L218.92 226.961Z" fill="white"/>
<path d="M218.049 232.348L206.149 234.992C206.018 235.019 205.882 234.994 205.77 234.921C205.658 234.849 205.579 234.735 205.55 234.605C205.521 234.475 205.545 234.338 205.615 234.225C205.686 234.112 205.799 234.031 205.929 234.001L217.829 231.356C217.894 231.341 217.962 231.338 218.029 231.349C218.095 231.36 218.159 231.384 218.216 231.42C218.273 231.456 218.322 231.502 218.361 231.557C218.4 231.612 218.427 231.675 218.442 231.74C218.457 231.806 218.458 231.874 218.446 231.94C218.434 232.006 218.409 232.07 218.373 232.126C218.336 232.183 218.289 232.231 218.233 232.269C218.178 232.308 218.115 232.334 218.049 232.348Z" fill="#9EC8FF"/>
<path d="M218.631 234.97L206.731 237.615C206.6 237.642 206.464 237.616 206.352 237.544C206.24 237.471 206.161 237.358 206.132 237.227C206.103 237.097 206.127 236.961 206.197 236.847C206.268 236.734 206.381 236.654 206.511 236.623L218.412 233.978C218.477 233.964 218.545 233.962 218.61 233.974C218.676 233.986 218.739 234.01 218.795 234.046C218.851 234.082 218.9 234.128 218.938 234.183C218.976 234.238 219.003 234.299 219.018 234.365C219.032 234.43 219.034 234.497 219.022 234.563C219.01 234.628 218.986 234.691 218.95 234.747C218.914 234.804 218.867 234.852 218.813 234.891C218.758 234.929 218.696 234.956 218.631 234.97Z" fill="#9EC8FF"/>
<path d="M219.24 237.709L207.34 240.353C207.274 240.369 207.206 240.371 207.14 240.36C207.074 240.349 207.01 240.325 206.953 240.29C206.896 240.254 206.847 240.207 206.808 240.152C206.769 240.097 206.741 240.035 206.727 239.969C206.712 239.904 206.711 239.836 206.723 239.769C206.735 239.703 206.759 239.64 206.796 239.583C206.833 239.527 206.88 239.478 206.935 239.44C206.991 239.402 207.054 239.375 207.119 239.362L219.02 236.717C219.15 236.69 219.286 236.716 219.399 236.788C219.511 236.861 219.59 236.974 219.619 237.105C219.648 237.235 219.624 237.371 219.553 237.484C219.482 237.598 219.37 237.678 219.24 237.709Z" fill="#9EC8FF"/>
<path d="M209.655 231.324C210.063 231.187 210.283 230.746 210.146 230.339C210.009 229.931 209.568 229.711 209.161 229.848C208.753 229.985 208.534 230.426 208.67 230.833C208.807 231.241 209.248 231.46 209.655 231.324Z" fill="#3E6BAB"/>
<path d="M256.332 247.547H306.382C307.67 247.547 308.714 246.503 308.714 245.215V227.332C308.714 226.044 307.67 225 306.382 225H256.332C255.044 225 254 226.044 254 227.332V245.215C254 246.503 255.044 247.547 256.332 247.547Z" fill="#9EC8FF"/>
<path d="M302.106 244.145V256.584L287.772 242.25C287.772 242.25 301.814 244.145 302.106 244.145Z" fill="#9EC8FF"/>
<path d="M258.807 245.311H303.907C304.999 245.311 305.884 244.426 305.884 243.334V229.212C305.884 228.121 304.999 227.236 303.907 227.236H258.807C257.715 227.236 256.83 228.121 256.83 229.212V243.334C256.83 244.426 257.715 245.311 258.807 245.311Z" fill="white"/>
<path d="M279.172 231.706H301.329C301.587 231.706 301.834 231.603 302.016 231.421C302.199 231.239 302.301 230.991 302.301 230.734C302.301 230.476 302.199 230.228 302.016 230.046C301.834 229.864 301.587 229.761 301.329 229.761H279.172C278.914 229.761 278.666 229.864 278.484 230.046C278.302 230.228 278.199 230.476 278.199 230.734C278.199 230.991 278.302 231.239 278.484 231.421C278.666 231.603 278.914 231.706 279.172 231.706Z" fill="#9EC8FF"/>
<path d="M260.663 235.421H301.759C302.058 235.421 302.3 235.179 302.3 234.881V234.87C302.3 234.571 302.058 234.329 301.759 234.329H260.663C260.365 234.329 260.123 234.571 260.123 234.87V234.881C260.123 235.179 260.365 235.421 260.663 235.421Z" fill="#9EC8FF"/>
<path d="M260.663 237.537H301.759C302.058 237.537 302.3 237.295 302.3 236.996V236.985C302.3 236.686 302.058 236.444 301.759 236.444H260.663C260.365 236.444 260.123 236.686 260.123 236.985V236.996C260.123 237.295 260.365 237.537 260.663 237.537Z" fill="#9EC8FF"/>
<path d="M297.649 422.429C298.626 426.392 296.698 429.539 294.118 431.835C292.02 433.7 285.571 434.493 285.881 435.425C286.191 436.358 293.807 436.652 296.371 436.264C298.936 435.876 299.635 434.633 302.826 434.633C304.924 434.633 305.308 432.932 304.375 430.829C303.443 428.727 303.116 427.566 303.959 425.678C304.802 423.789 297.649 422.429 297.649 422.429Z" fill="#2E5B9A"/>
<path d="M335.703 422.429C335.546 426.547 335.069 429.615 336.079 431.521C339.98 434.784 343.223 438.492 341.985 438.747C336.079 439.968 333.826 436.428 330.484 435.422C326.384 434.186 330.873 429.035 329.266 422.426C328.372 418.751 335.458 419.629 335.458 419.629L335.703 422.429Z" fill="#2E5B9A"/>
<path d="M307.832 328.437C305.241 350.194 300.533 366.277 300.008 376.593C299.484 386.908 297.386 427.521 297.386 427.521C297.386 427.521 303.155 427.117 303.68 426.238C304.204 425.36 314.52 402.461 313.995 388.301C313.471 374.14 324.297 352.613 324.297 352.613L321.687 331.487L307.832 328.437Z" fill="#1487E3"/>
<path d="M329.03 326.243C329.03 326.243 337.762 337.382 337.488 350.02C337.072 369.252 334.974 374.75 338.625 394.921C340.05 402.799 335.478 428.571 335.478 428.571C335.478 428.571 331.572 428.876 329.474 427.832C329.649 425.939 326.949 395.135 321.693 380.976C319.146 374.119 315.569 354.916 313.65 343.901C311.732 332.887 311.377 330.614 312.077 330.614C312.776 330.614 329.03 326.243 329.03 326.243Z" fill="#1487E3"/>
<path d="M279.277 295.307C279.277 295.307 279.665 289.543 279.044 287.763C278.423 285.983 273.06 284.427 273.06 284.427C273.06 284.427 272.827 292.664 273.371 293.674C273.916 294.683 277.101 297.56 277.101 297.56L279.277 295.307Z" fill="#F09959"/>
<path d="M274.499 282.469L261 285.178L262.721 293.751L276.22 291.042L274.499 282.469Z" fill="#F5DC95"/>
<path d="M304.064 261.272C312.146 253.58 325.958 253.755 325.667 265.468C325.375 277.182 326.342 278.284 329.668 284.427C341.207 305.749 315.915 304.495 305.366 305.194C294.818 305.893 295.692 286.021 297.557 275.006C299.422 263.992 301.699 263.524 304.064 261.272Z" fill="#303C60"/>
<path d="M309.425 291.107C297.149 304.321 293.142 309.881 292.21 309.881C289.296 304.737 279.621 293.859 279.621 293.859L275.494 296.512C275.494 296.512 285.031 321.428 291.092 321.688C297.153 321.948 309.471 313.095 309.624 312.079C309.777 311.063 309.425 291.107 309.425 291.107Z" fill="#A2DFF2"/>
<path d="M296.62 320.394C302.626 317.946 309.506 312.834 309.623 312.077C309.779 311.06 309.424 291.107 309.424 291.107C306.743 293.988 304.412 296.543 302.384 298.778C300.185 306.967 300.33 315.885 296.62 320.394Z" fill="#96CFE0"/>
<path d="M321.898 282.408C321.898 282.408 333.645 288.297 336.209 298.726C338.774 309.156 331.186 322.027 330.253 328.899C329.321 335.771 307.875 336.98 307.875 329.624C307.875 322.571 302.502 307.602 302.805 303.788C303.517 294.841 316.594 283.882 316.594 283.882L321.898 282.408Z" fill="#A2DFF2"/>
<path d="M318.483 268.906L323.527 284.457C323.527 284.457 318.142 288.613 308.926 298.61C309.284 291.957 314.857 284.706 314.857 284.706L311.043 270.02L318.483 268.906Z" fill="#F09959"/>
<path d="M320.836 276.159L318.484 268.906L311.043 270.02L314.858 284.706C314.858 284.706 314.485 285.299 313.936 286.233C317.529 283.565 319.734 280.245 320.836 276.159Z" fill="#E38540"/>
<path d="M315.705 272.415C314.345 277.364 309.078 280.089 305.331 279.059C301.585 278.029 300.786 273.638 302.148 268.685C303.511 263.733 307.646 260.558 311.389 261.587C315.131 262.616 317.065 267.466 315.705 272.415Z" fill="#F09959"/>
<path d="M306.939 322.645C308.57 332.994 302.51 355.134 302.51 355.134C302.51 355.134 306.123 355.949 316.962 354.9C327.802 353.851 332.581 343.033 334.213 342.731C335.844 342.429 336.682 352.799 337.487 353.618C338.291 354.438 338.419 340.523 336.311 335.052C332.581 325.356 333.311 321.243 334.705 315.368C337.181 304.927 306.939 322.645 306.939 322.645Z" fill="#A2DFF2"/>
<path d="M337.193 338.435C336.96 337.143 336.666 335.98 336.312 335.055C332.582 325.358 333.312 321.245 334.706 315.371C334.809 314.972 334.858 314.561 334.85 314.149C335.165 313.1 335.459 312.041 335.716 310.972L334.451 299.549L325.323 288.71C318.483 298.734 323.099 311.205 322.073 318.082C321.046 324.959 309.585 333.727 309.585 333.727L309.958 336.167C310.203 337.776 311.071 339.224 312.374 340.198C313.678 341.172 315.313 341.594 316.925 341.373C321.649 340.717 327.847 339.4 330.604 336.841C333.269 334.358 335.633 336.274 337.193 338.435Z" fill="#96CFE0"/>
<path d="M312.261 333.326C312.261 333.326 307.201 334.742 306.596 335.058C305.991 335.374 305.657 337.048 305.657 337.048C305.657 337.048 302.76 339.563 303.87 340.454C304.98 341.344 306.961 343.601 309.581 342.552C311.189 341.908 312.436 336 313.489 335.952C314.543 335.904 312.261 333.326 312.261 333.326Z" fill="#F09959"/>
<path d="M326.591 287.381C332.006 287.535 336.917 297.288 338.628 305.75C340.339 314.212 342.14 326.243 342.14 326.243C342.14 326.243 333.165 333.326 324.297 335.396C316.56 337.202 312.612 337.908 312.612 337.908L311.043 333.497L329.552 322.626C329.552 322.626 322.746 309.805 322.069 300.131C321.392 290.457 322.476 287.264 326.591 287.381Z" fill="#A2DFF2"/>
<path d="M303.147 263.137C303.448 272.851 314.792 272.106 317.901 271.507C321.009 270.908 314.111 292.004 320.032 293.216C324.38 294.11 323.401 287.309 328.231 287.763C330.367 287.964 332.514 291.267 332.514 291.267C332.514 291.267 332.194 289.233 330.562 287.763C328.93 286.294 324.652 277.28 323.527 270.83C322.402 264.38 314.785 260.21 312.534 260.081C310.284 259.953 304.764 262.515 304.764 262.515L303.147 263.137Z" fill="#303C60"/>
<path d="M319.931 295.414C319.775 295.414 319.618 295.397 319.465 295.364C317.57 294.961 316.652 292.969 316.573 289.097C316.506 285.777 317.055 281.521 317.635 277.008C317.868 275.185 318.113 273.301 318.314 271.476C318.326 271.405 318.365 271.341 318.423 271.298C318.481 271.254 318.553 271.235 318.625 271.243C318.697 271.251 318.763 271.286 318.81 271.341C318.857 271.396 318.881 271.467 318.878 271.539C318.677 273.368 318.434 275.255 318.199 277.08C317.075 285.806 316.013 294.049 319.583 294.809C319.692 294.832 319.803 294.844 319.915 294.844C321.965 294.844 323.812 290.849 324.887 286.957C324.91 286.887 324.959 286.83 325.023 286.795C325.087 286.761 325.162 286.752 325.233 286.771C325.303 286.791 325.363 286.836 325.401 286.899C325.439 286.961 325.451 287.036 325.435 287.107C324.724 289.673 322.814 295.414 319.931 295.414Z" fill="#303C60"/>
<path d="M319.173 297.672C318.857 297.673 318.544 297.607 318.254 297.478C317.965 297.35 317.706 297.161 317.495 296.926C313.628 292.837 317.452 272.325 317.612 271.455C317.629 271.384 317.672 271.322 317.734 271.282C317.795 271.243 317.869 271.228 317.941 271.242C318.012 271.255 318.076 271.296 318.119 271.355C318.161 271.414 318.18 271.487 318.17 271.56C318.13 271.771 314.234 292.656 317.903 296.535C318.093 296.75 318.334 296.913 318.604 297.009C318.874 297.105 319.164 297.132 319.447 297.085C321.456 296.82 322.614 294.094 323.643 291.691C324.635 289.36 325.569 287.156 327.231 287.214C327.306 287.217 327.377 287.249 327.429 287.304C327.48 287.359 327.507 287.433 327.505 287.508C327.504 287.545 327.496 287.582 327.481 287.616C327.465 287.651 327.443 287.681 327.416 287.707C327.389 287.733 327.356 287.752 327.321 287.765C327.286 287.778 327.249 287.784 327.211 287.782H327.17C325.924 287.782 325.072 289.79 324.166 291.914C323.084 294.458 321.857 297.342 319.527 297.649C319.409 297.664 319.292 297.672 319.173 297.672Z" fill="#303C60"/>
<path d="M318.317 273.373C317.517 274.404 316.264 274.772 315.519 274.189C314.775 273.606 314.82 272.307 315.617 271.275C316.414 270.244 317.669 269.877 318.415 270.459C319.161 271.042 319.115 272.343 318.317 273.373Z" fill="#F09959"/>
<defs>
<filter id="filter0_d" x="323.21" y="175.61" width="151.33" height="195.86" filterUnits="userSpaceOnUse" color-interpolation-filters="sRGB">
<feFlood flood-opacity="0" result="BackgroundImageFix"/>
<feColorMatrix in="SourceAlpha" type="matrix" values="0 0 0 0 0 0 0 0 0 0 0 0 0 0 0 0 0 0 127 0"/>
<feOffset dx="4" dy="4"/>
<feGaussianBlur stdDeviation="12.5"/>
<feColorMatrix type="matrix" values="0 0 0 0 0 0 0 0 0 0 0 0 0 0 0 0 0 0 0.15 0"/>
<feBlend mode="normal" in2="BackgroundImageFix" result="effect1_dropShadow"/>
<feBlend mode="normal" in="SourceGraphic" in2="effect1_dropShadow" result="shape"/>
</filter>
<filter id="filter1_d" x="76" y="195" width="219" height="211" filterUnits="userSpaceOnUse" color-interpolation-filters="sRGB">
<feFlood flood-opacity="0" result="BackgroundImageFix"/>
<feColorMatrix in="SourceAlpha" type="matrix" values="0 0 0 0 0 0 0 0 0 0 0 0 0 0 0 0 0 0 127 0"/>
<feOffset dx="4" dy="4"/>
<feGaussianBlur stdDeviation="12.5"/>
<feColorMatrix type="matrix" values="0 0 0 0 0 0 0 0 0 0 0 0 0 0 0 0 0 0 0.15 0"/>
<feBlend mode="normal" in2="BackgroundImageFix" result="effect1_dropShadow"/>
<feBlend mode="normal" in="SourceGraphic" in2="effect1_dropShadow" result="shape"/>
</filter>
<linearGradient id="paint0_linear" x1="247.688" y1="98.5007" x2="245.522" y2="100.617" gradientUnits="userSpaceOnUse">
<stop offset="0.176" stop-color="#0052CC"/>
<stop offset="1" stop-color="#2684FF"/>
</linearGradient>
<linearGradient id="paint1_linear" x1="248.249" y1="104.725" x2="250.41" y2="102.613" gradientUnits="userSpaceOnUse">
<stop offset="0.176" stop-color="#0052CC"/>
<stop offset="1" stop-color="#2684FF"/>
</linearGradient>
<linearGradient id="paint2_linear" x1="4579.56" y1="23103.3" x2="6888.96" y2="23103.3" gradientUnits="userSpaceOnUse">
<stop stop-color="#40D5E6"/>
<stop offset="1" stop-color="#5577FF"/>
</linearGradient>
<linearGradient id="paint3_linear" x1="3613.22" y1="22645.3" x2="4914.27" y2="22645.3" gradientUnits="userSpaceOnUse">
<stop stop-color="#40D5E6"/>
<stop offset="1" stop-color="#5577FF"/>
</linearGradient>
<linearGradient id="paint4_linear" x1="74.8" y1="415.55" x2="113.57" y2="415.55" gradientUnits="userSpaceOnUse">
<stop stop-color="#FF9340"/>
<stop offset="1" stop-color="#FFCE45"/>
</linearGradient>
<linearGradient id="paint5_linear" x1="74.8" y1="415.55" x2="113.57" y2="415.55" gradientUnits="userSpaceOnUse">
<stop stop-color="#C97332"/>
<stop offset="1" stop-color="#FFCE45"/>
</linearGradient>
<linearGradient id="paint6_linear" x1="398.378" y1="250.784" x2="398.378" y2="223.115" gradientUnits="userSpaceOnUse">
<stop stop-color="#E5E8EC" stop-opacity="0.1"/>
<stop offset="0.08" stop-color="#E1E4E9" stop-opacity="0.27"/>
<stop offset="0.18" stop-color="#DCE0E5" stop-opacity="0.46"/>
<stop offset="0.29" stop-color="#D8DCE2" stop-opacity="0.63"/>
<stop offset="0.4" stop-color="#D5D9DF" stop-opacity="0.76"/>
<stop offset="0.53" stop-color="#D2D7DD" stop-opacity="0.87"/>
<stop offset="0.66" stop-color="#D0D5DC" stop-opacity="0.94"/>
<stop offset="0.8" stop-color="#CFD4DB" stop-opacity="0.99"/>
<stop offset="1" stop-color="#CFD4DB"/>
</linearGradient>
</defs>
</svg>
